<ttFont>
          <CharString index="0">
            418 345 189.99 392 hvcurveto
            653.99 -303 -618.99 vlineto
            -259.01 -197 -112.99 -276.01 -114 -141 33 48 -113.01 vhcurveto
            223 93 rmoveto
            255 -1 rlineto
            56.02 -34 callsubr
            33 127 135 vvcurveto
            489.99 -304 -555.99 vlineto
            -108 -13.99 -103.02 -26.01 104 callsubr
            return
          </CharString>
          <CharString index="1">
            rmoveto
            43 vlineto
            355 -228 222 -320 -322.99 -224 -222 -355 vhcurveto
            -43 vlineto
            -356 226 -220.97 323.01 320 226 220.97 356 vhcurveto
            -303 44 rmoveto
            -44 vlineto
            -211 -70 callgsubr
            -3 callgsubr
            -153 -159 -87 -69 callsubr
            211 vhcurveto
            44 vlineto
            213 85.02 122 7 callgsubr
            154 -71 callsubr
            -122 -213 vhcurveto
            endchar
          </CharString>
          <CharString index="2">
            334.99 hlineto
            -542.99 67 callsubr
            -12 callgsubr
            hlineto
            -211.99 hlineto
            -540 56 callgsubr
            333.99 hlineto
            95.01 288.99 rlineto
            516 hlineto
            -432.99 254 rmoveto
            174 531 175 -531 rlineto
            endchar
          </CharString>
          <CharString index="3">
            304 hlineto
            -463.01 68 callsubr
            -80 hlineto
            -206 hlineto
            -458.97 56 callsubr
            303.98 hlineto
            78 215.98 rlineto
            442 hlineto
            -363 218 rmoveto
            139 381.99 -31 callgsubr
            -381.99 rlineto
            endchar
          </CharString>
          <CharString index="4">
            rmoveto
            63 vlineto
            444.01 -257 273 -368 -368 -256 -273 -444.01 vhcurveto
            -63 vlineto
            -444 258 -271.99 368 368 255 271.99 444 vhcurveto
            -318.02 65 rmoveto
            -65 vlineto
            -295 -109 -164 -196 -197 -111 164 295 vhcurveto
            65 vlineto
            297.98 109 159 197 195 111.99 -159 -297.98 vhcurveto
            endchar
          </CharString>
          <CharString index="5">
            242.99 return
          </CharString>
          <CharString index="6">
            1302 -66 callgsubr
            -352.01 hlineto
            -202 -417 -289 417 rlineto
            -351 hlineto
            264.99 -380.99 rlineto
            -151.99 -50 callgsubr
            -64 -127 -221 vvcurveto
            -396.98 -4 callgsubr
            531.99 vlineto
            47 11.02 35 23 30 vhcurveto
            446 -643.99 rlineto
            350 hlineto
            -350 505 rlineto
            return
          </CharString>
          <CharString index="7">
            rmoveto
            -314 -956.99 hlineto
            -187 -61 callsubr
            -13 callgsubr
            -157 -157 -92 79.01 187 vhcurveto
            956.99 -315 -956.99 vlineto
            -338 233 -181 331 328 233 181 338 vhcurveto
            endchar
          </CharString>
          <CharString index="8">
            313.99 return
          </CharString>
          <CharString index="9">
            -334 -167 -131 -225 -189.99 162 -135 205 128.99 85.01 51.99 65 57 hvcurveto
            return
          </CharString>
          <CharString index="10">
            -103 callgsubr
            hstem
            return
          </CharString>
          <CharString index="11">
            315 vstem
            -12 callsubr
            hmoveto
            310 hlineto
            8 callsubr
            715 rlineto
            167 17 63.02 92 6 callgsubr
            hhcurveto
            117 68 -93 -159.99 hvcurveto
            1 -477 rlineto
            -210.98 -244 524.98 678.99 hlineto
            362 79 callgsubr
            -193 112 callsubr
            -364.01 hhcurveto
            -186 -224.99 -39 -56 -154 hvcurveto
            -68 callgsubr
            -227.99 76 callsubr
            80 callsubr
            112 callgsubr
            25 53 8.01 rlinecurve
            1 -5.02 -5.02 79 callgsubr
            -5 -5 -4 141 callsubr
            rlinecurve
            -45 callsubr
            -45 callsubr
            95 callsubr
            -105 -12.99 -108.02 rrcurveto
            return
          </CharString>
          <CharString index="12">
            37 callgsubr
            668 -86 callsubr
            -668 vlineto
            47 callsubr
            hlineto
            770.99 67 callgsubr
            endchar
          </CharString>
          <CharString index="13">
            -99 callsubr
            vstem
            return
          </CharString>
          <CharString index="14">
            -60.99 return
          </CharString>
          <CharString index="15">
            60.99 return
          </CharString>
          <CharString index="16">
            57 -81 -81 -60 -57 -62 callsubr
            60 -57 81 hvcurveto
            496 hmoveto
            -5 callsubr
            -49 callsubr
            -60.99 56 -81 -81 -61 105 callgsubr
            -73.02 61 -45 callsubr
            81 hvcurveto
            return
          </CharString>
          <CharString index="17">
            -72.99 return
          </CharString>
          <CharString index="18">
            252.99 return
          </CharString>
          <CharString index="19">
            258 0 43 245.99 -86 callsubr
            872.03998 -98 callgsubr
            return
          </CharString>
          <CharString index="20">
            rmoveto
            505 vlineto
            279 -176.99 -32 callgsubr
            -306.02 vhcurveto
            -345 -244 323.01 hlineto
            128 63 -58.98 -121.02 hvcurveto
            -530 -578 -244.98 1031 233.98 vlineto
            return
          </CharString>
          <CharString index="21">
            253.99 return
          </CharString>
          <CharString index="22">
            169 hstemhm
            53 callgsubr
            -191.98999 211 164 210.98 -190.99 208.99 hintmask 11110010
            564.98 return
          </CharString>
          <CharString index="23">
            hstemhm
            -6 callsubr
            -276.98001 -104 callgsubr
            return
          </CharString>
          <CharString index="24">
            72.99 return
          </CharString>
          <CharString index="25">
            91 -80 callsubr
            -34 callgsubr
            714.99 241 return
          </CharString>
          <CharString index="26">
            -20 -80 callgsubr
            return
          </CharString>
          <CharString index="27">
            -15.99 return
          </CharString>
          <CharString index="28">
            -1455.98 return
          </CharString>
          <CharString index="29">
            -139 0 -102 callsubr
            236.98999 -103 callgsubr
            198.01 -102 callsubr
            return
          </CharString>
          <CharString index="30">
            6 -37 9.99 -34 13 4 callsubr
            rrcurveto
            303 17 hlineto
            return
          </CharString>
          <CharString index="31">
            48 callgsubr
            -223.99 223.99 return
          </CharString>
          <CharString index="32">
            15.99 -80 callsubr
            return
          </CharString>
          <CharString index="33">
            0 43 818.98 220.01 231.00002 -97 callsubr
            184.99 -104 callgsubr
            return
          </CharString>
          <CharString index="34">
            -1164.98 return
          </CharString>
          <CharString index="35">
            rmoveto
            -128.98 -107.01 -51 -94 -75 hvcurveto
            -9.99 143 callgsubr
            rlineto
            -283.02 -1082 302 762 hlineto
            114 callsubr
            35 57 37 81.02 hhcurveto
            106.99 61 -36 -135 hvcurveto
            -686.98 302 686 vlineto
            308.98 -137.02 107.01 -204 vhcurveto
            endchar
          </CharString>
          <CharString index="36">
            90.99 return
          </CharString>
          <CharString index="37">
            -9 callgsubr
            hstem
            return
          </CharString>
          <CharString index="38">
            124.99 return
          </CharString>
          <CharString index="39">
            54.99 return
          </CharString>
          <CharString index="40">
            94.99 303 return
          </CharString>
          <CharString index="41">
            185.99 return
          </CharString>
          <CharString index="42">
            -94 callsubr
            288.99 -20 rmoveto
            231 136 141 243 hvcurveto
            834.99 -526 -244 212 -565.99 vlineto
            -106 20 callsubr
            -49 -92 -2 callsubr
            -49 3 7 -47 vhcurveto
            -1 -236 rlineto
            -18.98 89 -92 callsubr
            -9.01 79.01 hhcurveto
            return
          </CharString>
          <CharString index="43">
            -165 -64 161 callgsubr
            233 hvcurveto
            138 callgsubr
            vlineto
            228 76 104 149 -32 callgsubr
            58 -86 -99 4 vhcurveto
            110 callgsubr
            hlineto
            245 -24 -173.02 124 callgsubr
            -326.98 hhcurveto
            -318.02 -209 -217.99 -358.01 hvcurveto
            -47.99 vlineto
            return
          </CharString>
          <CharString index="44">
            rmoveto
            -303 -1078.99 hlineto
            -104 217 248 -53 219 hhcurveto
            return
          </CharString>
          <CharString index="45">
            -90 callsubr
            -72.01 return
          </CharString>
          <CharString index="46">
            -90.01 return
          </CharString>
          <CharString index="47">
            -160 -220.02 160 24 callsubr
            return
          </CharString>
          <CharString index="48">
            42.99 return
          </CharString>
          <CharString index="49">
            7.99 -112.99 rlineto
            283.02 1082 hlineto
            endchar
          </CharString>
          <CharString index="50">
            -53 -51 -15 callgsubr
            return
          </CharString>
          <CharString index="51">
            172.99 return
          </CharString>
          <CharString index="52">
            -89 callsubr
            373 245 331 -86 callsubr
            return
          </CharString>
          <CharString index="53">
            -59.99 return
          </CharString>
          <CharString index="54">
            310.98 hstem
            return
          </CharString>
          <CharString index="55">
            90.01 return
          </CharString>
          <CharString index="56">
            -51.02 return
          </CharString>
          <CharString index="57">
            59.99 return
          </CharString>
          <CharString index="58">
            -33 callsubr
            73.02 -83 callsubr
            return
          </CharString>
          <CharString index="59">
            227 15 callsubr
            return
          </CharString>
          <CharString index="60">
            -83 callsubr
            -93 callsubr
            return
          </CharString>
          <CharString index="61">
            vstem
            1157 -66 callgsubr
            -351 hlineto
            -182 -391.99 -245.99 391.99 rlineto
            -349 hlineto
            644 -954 rlineto
            -544.99 -244.98 948 141.99 hlineto
            -268 387.01 rlineto
            return
          </CharString>
          <CharString index="62">
            -55.99 return
          </CharString>
          <CharString index="63">
            -49.99 return
          </CharString>
          <CharString index="64">
            88.99 return
          </CharString>
          <CharString index="65">
            85 callgsubr
            200.99 -31 callsubr
            vstem
            -4 callgsubr
            121 callsubr
            42 38 52 53 -42 39 -59 -60 callgsubr
            endchar
          </CharString>
          <CharString index="66">
            30 -201 rlineto
            10.02 42 36 6 30.99 hhcurveto
            91.01 45 -52 -105 hvcurveto
            -345 vlineto
            -144 28 callgsubr
            -96.01 -3 callgsubr
            -124 139 callgsubr
            96 callsubr
            144 vhcurveto
            return
          </CharString>
          <CharString index="67">
            129 hlineto
            278 hlineto
            335.01 98 callsubr
            233.98 327 hvcurveto
            43 vlineto
            326.98 -241 234 -339.99 vhcurveto
            278 -604 rmoveto
            -217 -90 callsubr
            -100.99 -201 vhcurveto
            -104 return
          </CharString>
          <CharString index="68">
            1224.99 rmoveto
            -198 311.01 rlineto
            -326 hlineto
            return
          </CharString>
          <CharString index="69">
            289 -20 257 980.98 258 return
          </CharString>
          <CharString index="70">
            101.99 return
          </CharString>
          <CharString index="71">
            hlineto
            -80 398.99 rlineto
            -13 28 callsubr
            -7 18 callgsubr
            63 vvcurveto
            606.99 -571 -244 return
          </CharString>
          <CharString index="72">
            43 callgsubr
            342.01 -104 callgsubr
            return
          </CharString>
          <CharString index="73">
            66.01 return
          </CharString>
          <CharString index="74">
            55.99 return
          </CharString>
          <CharString index="75">
            73.01 return
          </CharString>
          <CharString index="76">
            202.99 return
          </CharString>
          <CharString index="77">
            89.99 return
          </CharString>
          <CharString index="78">
            88 callsubr
            -62 callgsubr
            return
          </CharString>
          <CharString index="79">
            -83 callsubr
            -61 return
          </CharString>
          <CharString index="80">
            136 hlineto
            315.98 hlineto
            395 275 280.98 415 hvcurveto
            64 vlineto
            414 -275 281.98 -392.99 vhcurveto
            349 -759.99 rmoveto
            -287 -122 -156 -229 vhcurveto
            -138 return
          </CharString>
          <CharString index="81">
            hstemhm
            46.98 211 -196.98999 210 200.98999 210 -195.98999 211 return
          </CharString>
          <CharString index="82">
            169 hstem
            53 callgsubr
            202 210 vstem
            692.98 return
          </CharString>
          <CharString index="83">
            -28 callgsubr
            612.99 318.01 return
          </CharString>
          <CharString index="84">
            -196 -59 callgsubr
            244 hlineto
            return
          </CharString>
          <CharString index="85">
            hstem
            -67 callsubr
            return
          </CharString>
          <CharString index="86">
            125.99 return
          </CharString>
          <CharString index="87">
            -31.99 return
          </CharString>
          <CharString index="88">
            -42.99 return
          </CharString>
          <CharString index="89">
            -50.02 return
          </CharString>
          <CharString index="90">
            -43 callgsubr
            212.01 20 callgsubr
            return
          </CharString>
          <CharString index="91">
            -103 callgsubr
            hstemhm
            return
          </CharString>
          <CharString index="92">
            70 -35 vhcurveto
            hintmask 11110010
            -80 -37 -18 callsubr
            -64 -87 vvcurveto
            -155 16 callgsubr
            155 87 -2 callsubr
            64 -13 callgsubr
            37 vhcurveto
            hintmask 11101100
            -184 return
          </CharString>
          <CharString index="93">
            -44 callgsubr
            hstem
            531.98 77 callsubr
            vstem
            634 99 callgsubr
            rmoveto
            58 -47 callgsubr
            -58 -59 -43 11 callsubr
            return
          </CharString>
          <CharString index="94">
            44.02 return
          </CharString>
          <CharString index="95">
            154.99 return
          </CharString>
          <CharString index="96">
            100.99 return
          </CharString>
          <CharString index="97">
            rmoveto
            59 29 callsubr
            75 callsubr
            52 52 100 callsubr
            -52 -52 3 callgsubr
          </CharString>
          <CharString index="98">
            -162 vhcurveto
            -74 callgsubr
            -369.99 rmoveto
            -75 -90 callgsubr
            36 82 hvcurveto
            40 vlineto
            23 17.99 39 22 -68 callsubr
            hhcurveto
            -34 callsubr
            43 -27 -74 callgsubr
            return
          </CharString>
          <CharString index="99">
            101 callsubr
            -93 callsubr
            -16 callgsubr
            197 callgsubr
            hvcurveto
            return
          </CharString>
          <CharString index="100">
            53 -43 38 66 callsubr
            -38 120 callsubr
            return
          </CharString>
          <CharString index="101">
            62.99 -78 callgsubr
            return
          </CharString>
          <CharString index="102">
            81 -92 callsubr
            return
          </CharString>
          <CharString index="103">
            25.99 return
          </CharString>
          <CharString index="104">
            170.99 return
          </CharString>
          <CharString index="105">
            -48.99 return
          </CharString>
          <CharString index="106">
            -94 callsubr
            570.98 hmoveto
            314 775.99 hlineto
            266 -174 157 -292 vhcurveto
            -384 -244 361 hlineto
            114.01 -92 callsubr
            -57 -106 hvcurveto
            return
          </CharString>
          <CharString index="107">
            rmoveto
            -180.02 -130.99 -131 -157 -176.99 -37 callsubr
            return
          </CharString>
          <CharString index="108">
            hstem
            69 210 220.99 210.98 vstem
            459 return
          </CharString>
          <CharString index="109">
            51 callgsubr
            381.99998 303 return
          </CharString>
          <CharString index="110">
            277.01 return
          </CharString>
          <CharString index="111">
            -25.99 return
          </CharString>
          <CharString index="112">
            -57.02 return
          </CharString>
          <CharString index="113">
            -54.99 return
          </CharString>
          <CharString index="114">
            -235.99 return
          </CharString>
          <CharString index="115">
            70.99 return
          </CharString>
          <CharString index="116">
            rmoveto
            -292.99 647 rlineto
            -342.02 hlineto
            476.02 -930 rlineto
            -525.99 318 525.99 vlineto
            476 930 rlineto
            -342 hlineto
            endchar
          </CharString>
          <CharString index="117">
            242.99 -22 callsubr
            return
          </CharString>
          <CharString index="118">
            -90 callgsubr
            -53 return
          </CharString>
          <CharString index="119">
            81.02 30 94 callsubr
            58 81 vvcurveto
            70 callsubr
            143 callsubr
            79.01 -189 -159 -143 -77 -148.99 vhcurveto
            210 hlineto
            return
          </CharString>
          <CharString index="120">
            122 callsubr
            endchar
          </CharString>
          <CharString index="121">
            367 -11 callgsubr
            -89 callsubr
            990.98 254 hstem
            82.98 -53 callgsubr
            699.01 81 callgsubr
            vstem
            1408 return
          </CharString>
          <CharString index="122">
            -20 -89 callsubr
            1182.02998 -98 callgsubr
            return
          </CharString>
          <CharString index="123">
            -303 -276.01 rlineto
            -16 return
          </CharString>
          <CharString index="124">
            -140.99 rlineto
            238 return
          </CharString>
          <CharString index="125">
            70.98 return
          </CharString>
          <CharString index="126">
            -328.99 return
          </CharString>
          <CharString index="127">
            -44.02 return
          </CharString>
          <CharString index="128">
            1.99 return
          </CharString>
          <CharString index="129">
            31 -81 callsubr
            123.01 311 hstem
            -69 callgsubr
            426.01 -89 callgsubr
            return
          </CharString>
          <CharString index="130">
            -426 234 172 -103 callgsubr
            141 callgsubr
            -97 callsubr
            return
          </CharString>
          <CharString index="131">
            -861.98 302 861.98 return
          </CharString>
          <CharString index="132">
            -66 callsubr
            -101.00002 return
          </CharString>
          <CharString index="133">
            -65 callgsubr
            rmoveto
            return
          </CharString>
          <CharString index="134">
            1120.99 -66 callgsubr
            -989 -244 146 callgsubr
            -28 -141 1 -128 rrcurveto
            -153 vlineto
            return
          </CharString>
          <CharString index="135">
            61.99 return
          </CharString>
          <CharString index="136">
            41.99 return
          </CharString>
          <CharString index="137">
            686 -24 rmoveto
            313 209 136 callgsubr
            310 hvcurveto
            333.99 vlineto
            241 -128 145 -212 71 callgsubr
            -99 -28 -41 -71 vhcurveto
            return
          </CharString>
          <CharString index="138">
            45 -75 callgsubr
            1028.01001 -53 callsubr
            2 callsubr
            vstem
            return
          </CharString>
          <CharString index="139">
            502.98 245 hstem
            122 571.98 vstem
            693.99 502.99 rmoveto
            245 -571.99 -245 vlineto
            endchar
          </CharString>
          <CharString index="140">
            -53 callgsubr
            vstem
            -50 callsubr
            -66 callgsubr
            -244 508 -954.98 313 76 callgsubr
            211 244 vlineto
            return
          </CharString>
          <CharString index="141">
            rlineto
            342 -159 211 159 -19 callgsubr
            hlineto
            -450.99 -3 callsubr
            50 callsubr
          </CharString>
          <CharString index="142">
            vlineto
            -110 125 callsubr
            -34 -93 callsubr
            -64 -38 34 110 vhcurveto
            return
          </CharString>
          <CharString index="143">
            -522 -9 callgsubr
            return
          </CharString>
          <CharString index="144">
            41 callsubr
            71 callgsubr
            return
          </CharString>
          <CharString index="145">
            -303 87 callgsubr
            return
          </CharString>
          <CharString index="146">
            102.01 return
          </CharString>
          <CharString index="147">
            26 0 -55 callsubr
            80.99998 311 103 callsubr
            return
          </CharString>
          <CharString index="148">
            hlineto
            -18 callsubr
            return
          </CharString>
          <CharString index="149">
            -770.99 rlineto
            313 744.98 hlineto
            300.01 return
          </CharString>
          <CharString index="150">
            1565.98 rmoveto
            -37 callgsubr
            hintmask 11101100
            38 callsubr
            -16.02 235 vlineto
            hintmask 11011100
            return
          </CharString>
          <CharString index="151">
            rmoveto
            57 26 -25 -45 -44 -25 159 callgsubr
            -45 callsubr
            -55 -28 30.99 44 45 28 25 53 hvcurveto
            hintmask 11110010
            2 return
          </CharString>
          <CharString index="152">
            79 callgsubr
            rrcurveto
            -29 -20 callsubr
            2.99 5 return
          </CharString>
          <CharString index="153">
            -75 callsubr
            292 hstemhm
            return
          </CharString>
          <CharString index="154">
            -48 callgsubr
            212 return
          </CharString>
          <CharString index="155">
            920.99 rmoveto
            -192 hlineto
            -278 -390 rlineto
            -6 vlineto
            -12.98 vlineto
            278 -390 rlineto
            192 hlineto
            -238 return
          </CharString>
          <CharString index="156">
            -127.02 77 callgsubr
            hvcurveto
            173 -9.02 rlineto
            61 36 32.02 46 vhcurveto
            hintmask 10110000
            104 return
          </CharString>
          <CharString index="157">
            rmoveto
            140 181 15 23 rlineto
            -204 vlineto
            endchar
          </CharString>
          <CharString index="158">
            107.99 -104 callgsubr
            return
          </CharString>
          <CharString index="159">
            11 callsubr
            -51 return
          </CharString>
          <CharString index="160">
            1414.98 rmoveto
            83 callgsubr
            11.99 hlineto
            -37 callgsubr
            return
          </CharString>
          <CharString index="161">
            -34 callsubr
            hhcurveto
            78.99 38 return
          </CharString>
          <CharString index="162">
            190 callgsubr
            -27 callgsubr
            return
          </CharString>
          <CharString index="163">
            -73 callsubr
            rlineto
            return
          </CharString>
          <CharString index="164">
            -221 19 callsubr
            hvcurveto
            -21.02 vlineto
            -315 return
          </CharString>
          <CharString index="165">
            1082 -303 -1082 vlineto
            endchar
          </CharString>
          <CharString index="166">
            -152 38 -53.99 35 63 vvcurveto
            76 callsubr
            76 callsubr
            63.02 115 return
          </CharString>
          <CharString index="167">
            217 284 274 -140 222.99 -273 vhcurveto
            -88 -754 rmoveto
            -128 -83 97 199 hvcurveto
            return
          </CharString>
          <CharString index="168">
            115 callsubr
            464 169 hstem
            -68 callsubr
            211 197 210 vstem
            694.99 return
          </CharString>
          <CharString index="169">
            -43 callgsubr
            211.99998 284.02 return
          </CharString>
          <CharString index="170">
            rmoveto
            59 -59 callsubr
            38 52 27 callgsubr
            return
          </CharString>
          <CharString index="171">
            rmoveto
            71 callsubr
            459 -211 hlineto
            return
          </CharString>
          <CharString index="172">
            hstemhm
            -69 callgsubr
            return
          </CharString>
          <CharString index="173">
            -59 11 callgsubr
            return
          </CharString>
          <CharString index="174">
            -71 callgsubr
            rlineto
            return
          </CharString>
          <CharString index="175">
            -65 callgsubr
            rlineto
            return
          </CharString>
          <CharString index="176">
            -102.01 return
          </CharString>
          <CharString index="177">
            147.99 return
          </CharString>
          <CharString index="178">
            -84.99 return
          </CharString>
          <CharString index="179">
            87.98 -13 rmoveto
            184 144 137.99 178 31.01 hvcurveto
            6 hlineto
            return
          </CharString>
          <CharString index="180">
            59 42 39 52 53 -42 52 callgsubr
            195 callsubr
            -52 return
          </CharString>
          <CharString index="181">
            69.98 309 385 295.99 return
          </CharString>
          <CharString index="182">
            39.02 return
          </CharString>
          <CharString index="183">
            49.99 return
          </CharString>
          <CharString index="184">
            201.99 return
          </CharString>
          <CharString index="185">
            -94.99 return
          </CharString>
          <CharString index="186">
            -206.99 return
          </CharString>
          <CharString index="187">
            19.99 return
          </CharString>
          <CharString index="188">
            317.99 return
          </CharString>
          <CharString index="189">
            -39 callgsubr
            56 -81 return
          </CharString>
          <CharString index="190">
            -3.99 1207.99 return
          </CharString>
          <CharString index="191">
            4.99 1374.98 return
          </CharString>
          <CharString index="192">
            15.01 hlineto
            254 203 return
          </CharString>
          <CharString index="193">
            0 -89 callsubr
            return
          </CharString>
          <CharString index="194">
            -52 -13 callsubr
            return
          </CharString>
          <CharString index="195">
            -86 callsubr
            hstem
            return
          </CharString>
          <CharString index="196">
            1101.99 rmoveto
            return
          </CharString>
          <CharString index="197">
            -94 callgsubr
            132 callgsubr
            return
          </CharString>
          <CharString index="198">
            -86 callgsubr
            hvcurveto
            return
          </CharString>
          <CharString index="199">
            156 -141 rlineto
            238 return
          </CharString>
          <CharString index="200">
            184.02 return
          </CharString>
          <CharString index="201">
            53.99 return
          </CharString>
          <CharString index="202">
            -45.02 return
          </CharString>
          <CharString index="203">
            96.01 return
          </CharString>
          <CharString index="204">
            329.99 return
          </CharString>
          <CharString index="205">
            241.99 return
          </CharString>
          <CharString index="206">
            64.98 return
          </CharString>
          <CharString index="207">
            8 callgsubr
            52 callgsubr
            -44.02 -90 callgsubr
            return
          </CharString>
          <CharString index="208">
            hmoveto
            -24 callgsubr
            -81 return
          </CharString>
          <CharString index="209">
            hstemhm
            57.99 -104 callgsubr
            -261.98001 284.99 return
          </CharString>
          <CharString index="210">
            hstem
            -62 callgsubr
            vstem
            return
          </CharString>
          <CharString index="211">
            -44 callsubr
            vhcurveto
            return
          </CharString>
          <CharString index="212">
            -102 callsubr
            hstem
            return
          </CharString>
          <CharString index="213">
            0 244.98 return
          </CharString>
          <CharString index="214">
            -154.99 return
          </CharString>
          <CharString index="215">
            180.98 return
          </CharString>
          <CharString index="216">
            43 38 52 53 -43 return
          </CharString>
          <CharString index="217">
            -229.99 return
          </CharString>
          <CharString index="218">
            71.99 return
          </CharString>
          <CharString index="219">
            188.99 return
          </CharString>
          <CharString index="220">
            -65.99 return
          </CharString>
          <CharString index="221">
            58.99 return
          </CharString>
          <CharString index="222">
            167.99 return
          </CharString>
          <CharString index="223">
            268.98 hmoveto
            322.01 hlineto
            -149 76 callgsubr
            rlineto
            return
          </CharString>
          <CharString index="224">
            165 125 callsubr
            50 -41 -72.01 vvcurveto
            -47 -36 -63 -123 return
          </CharString>
          <CharString index="225">
            -222 19 callsubr
            hvcurveto
            -21.01 vlineto
            -314.98 return
          </CharString>
          <CharString index="226">
            hstemhm
            -62 callgsubr
            return
          </CharString>
          <CharString index="227">
            -53 -51 -67 callgsubr
            return
          </CharString>
          <CharString index="228">
            88 callgsubr
            59 return
          </CharString>
          <CharString index="229">
            107 callgsubr
            hvcurveto
            return
          </CharString>
          <CharString index="230">
            243.01 return
          </CharString>
          <CharString index="231">
            247.99 return
          </CharString>
          <CharString index="232">
            -38.99 return
          </CharString>
          <CharString index="233">
            22.02 return
          </CharString>
          <CharString index="234">
            246.99 return
          </CharString>
          <CharString index="235">
            -2.99 24 27.02 -2 135 callsubr
            hhcurveto
            return
          </CharString>
          <CharString index="236">
            -172 12 rlineto
            -62.02 172 callgsubr
            return
          </CharString>
          <CharString index="237">
            140 hlineto
            227 122 -152 -287.99 hvcurveto
            endchar
          </CharString>
          <CharString index="238">
            -10.99 319.98 return
          </CharString>
          <CharString index="239">
            17 callgsubr
            hstem
            return
          </CharString>
          <CharString index="240">
            64.99 return
          </CharString>
          <CharString index="241">
            136.99 return
          </CharString>
          <CharString index="242">
            24.99 return
          </CharString>
          <CharString index="243">
            124.01 return
          </CharString>
          <CharString index="244">
            51.02 return
          </CharString>
          <CharString index="245">
            77.99 return
          </CharString>
          <CharString index="246">
            80.02 return
          </CharString>
          <CharString index="247">
            -68.02 return
          </CharString>
          <CharString index="248">
            -4.02 return
          </CharString>
          <CharString index="249">
            -114.01 return
          </CharString>
          <CharString index="250">
            -129.99 return
          </CharString>
          <CharString index="251">
            1536 hlineto
            hintmask 10111000
            -484 -1312.02 rmoveto
            -146 return
          </CharString>
          <CharString index="252">
            220 -144 -37 callsubr
            -295.02 64 vhcurveto
            return
          </CharString>
          <CharString index="253">
            741.99 -314.02 -705.99 vlineto
            return
          </CharString>
          <CharString index="254">
            rmoveto
            150 callsubr
          </CharString>
          <CharString index="255">
            -187.99 165 -96.02 219 -47 return
          </CharString>
          <CharString index="256">
            -280 79 callsubr
            hlineto
            -101 -41 -120 -63 -87 vhcurveto
            return
          </CharString>
          <CharString index="257">
            -26 callgsubr
            endchar
          </CharString>
          <CharString index="258">
            93 -129 -129 -94 -93 -111 return
          </CharString>
          <CharString index="259">
            350 -303 409.98 return
          </CharString>
          <CharString index="260">
            480.99 210 return
          </CharString>
          <CharString index="261">
            hvcurveto
            21.02 vlineto
            return
          </CharString>
          <CharString index="262">
            408.98 211 return
          </CharString>
          <CharString index="263">
            655.99 169 return
          </CharString>
          <CharString index="264">
            -58 20 callsubr
            return
          </CharString>
          <CharString index="265">
            36.99 return
          </CharString>
          <CharString index="266">
            283.01 return
          </CharString>
          <CharString index="267">
            67.99 return
          </CharString>
          <CharString index="268">
            304.98 return
          </CharString>
          <CharString index="269">
            -6.99 return
          </CharString>
          <CharString index="270">
            -141.99 return
          </CharString>
          <CharString index="271">
            196.02 return
          </CharString>
          <CharString index="272">
            1498 vlineto
            -483 -859.01 rmoveto
            -146 return
          </CharString>
          <CharString index="273">
            86 callsubr
            949 88 callsubr
            return
          </CharString>
          <CharString index="274">
            -81 callsubr
            hstem
            return
          </CharString>
          <CharString index="275">
            hlineto
            237 -398.99 -237 -400 rlineto
            return
          </CharString>
          <CharString index="276">
            110 48 -55 -83.01 hvcurveto
            302 hlineto
            return
          </CharString>
          <CharString index="277">
            187 callgsubr
            vhcurveto
            return
          </CharString>
          <CharString index="278">
            vlineto
            185 39 rlineto
            -542.99 vlineto
            endchar
          </CharString>
          <CharString index="279">
            -133 -95 206 callsubr
            return
          </CharString>
          <CharString index="280">
            -81 198 callsubr
            return
          </CharString>
          <CharString index="281">
            -86.02 return
          </CharString>
          <CharString index="282">
            -68.99 return
          </CharString>
          <CharString index="283">
            104.02 return
          </CharString>
          <CharString index="284">
            91.02 return
          </CharString>
          <CharString index="285">
            704.98 return
          </CharString>
          <CharString index="286">
            205.99 return
          </CharString>
          <CharString index="287">
            199.99 return
          </CharString>
          <CharString index="288">
            164.99 return
          </CharString>
          <CharString index="289">
            -171.99 return
          </CharString>
          <CharString index="290">
            -126.02 return
          </CharString>
          <CharString index="291">
            rmoveto
            -326 hlineto
            return
          </CharString>
          <CharString index="292">
            -30 callgsubr
            69 69 callsubr
            hvcurveto
            return
          </CharString>
          <CharString index="293">
            159 381.17 220.82 return
          </CharString>
          <CharString index="294">
            -390.99 -389.02 -272 return
          </CharString>
          <CharString index="295">
            158 hhcurveto
            212 99 return
          </CharString>
          <CharString index="296">
            109 callsubr
            38 return
          </CharString>
          <CharString index="297">
            hintmask 11101001
            104 callgsubr
            return
          </CharString>
          <CharString index="298">
            -87 callgsubr
            -21 callsubr
            return
          </CharString>
          <CharString index="299">
            43 814.98 -103 callgsubr
            return
          </CharString>
          <CharString index="300">
            295.99 vstem
            1059.98 return
          </CharString>
          <CharString index="301">
            -452.99 2065.98 hstem
            return
          </CharString>
          <CharString index="302">
            -19 callsubr
            11 callsubr
            return
          </CharString>
          <CharString index="303">
            20 callgsubr
            hintmask 00000000
            return
          </CharString>
          <CharString index="304">
            182 callsubr
            12 rlineto
            return
          </CharString>
          <CharString index="305">
            -60 -57 -90 callsubr
            return
          </CharString>
          <CharString index="306">
            -53 87 callsubr
            return
          </CharString>
          <CharString index="307">
            -125.01 return
          </CharString>
          <CharString index="308">
            26.99 return
          </CharString>
          <CharString index="309">
            79.99 return
          </CharString>
          <CharString index="310">
            -85.01 return
          </CharString>
          <CharString index="311">
            139.98 return
          </CharString>
          <CharString index="312">
            9.01 return
          </CharString>
          <CharString index="313">
            -127 -143 hvcurveto
            return
          </CharString>
          <CharString index="314">
            118.99 return
          </CharString>
          <CharString index="315">
            307.99 return
          </CharString>
          <CharString index="316">
            278.02 return
          </CharString>
          <CharString index="317">
            179.99 return
          </CharString>
          <CharString index="318">
            225.99 return
          </CharString>
          <CharString index="319">
            -19.99 return
          </CharString>
          <CharString index="320">
            258.99 return
          </CharString>
          <CharString index="321">
            hvcurveto
            55 vlineto
            233.99 -141 return
          </CharString>
          <CharString index="322">
            -37 callsubr
            -68 callgsubr
            return
          </CharString>
          <CharString index="323">
            -21 callsubr
            -99 callsubr
            return
          </CharString>
          <CharString index="324">
            -50 callsubr
            -104 callgsubr
            return
          </CharString>
          <CharString index="325">
            99 callsubr
            -99 callsubr
            return
          </CharString>
          <CharString index="326">
            141 156 return
          </CharString>
        <CharString name=".notdef">
          226 -555 -66 callsubr
          90.01999 -21 callsubr
          -52 callsubr
          28 callsubr
          88.98 127.01 -43 callsubr
          161.99 89.01 65 151.01001 60 90.98999 62.99 89.02 100 88.98999 -32 callsubr
          91.99 96.99 92.02 70 88.98999 100 89.01001 181 hstemhm
          250.98 200 89.01001 -43 callsubr
          29 callgsubr
          269.98 -88.98 -43 callsubr
          89.01 207.99 hintmask 111111111111111101100000
          1106.98 2146 rmoveto
          -856 -2701 856 hlineto
          -207.99 2520 rmoveto
          -89 -178 -100 178 29 callgsubr
          -448 -43 callsubr
          160 callgsubr
          100 -175 89 vlineto
          267.02 -348 rmoveto
          -189 178 -92 -448 281 vlineto
          160 callgsubr
          174 callgsubr
          rmoveto
          29 callgsubr
          -97 -43 callsubr
          hlineto
          270.01 -165 rmoveto
          29 callgsubr
          -178 -189 -270 89 160 callgsubr
          100 -177.99 -43 callsubr
          vlineto
          448 -162 rmoveto
          -269.98 -448 -71 callsubr
          358.99 179 vlineto
          89.01 -329.99 rmoveto
          -305.01 -448 305.01 89 -216 269.98 127 29 callgsubr
          -2 callgsubr
          174 callgsubr
          151 vlineto
          270.01 -467.01 rmoveto
          -304.98 -448 161 callsubr
          vlineto
          hintmask 111100000000001010100000
          358.99 29 callgsubr
          rmoveto
          -269.98 -127.02 269.98 hlineto
          89.01 -150.98 rmoveto
          -61 callsubr
          -86 vlineto
          -189 -125.99 rlineto
          275.01 -61 callsubr
          -448 -52 callsubr
          hlineto
          189 -21 callsubr
          rlineto
          -189 -52 callsubr
          hlineto
          endchar
        </CharString>
        <CharString name=".null">
          -1125 endchar
        </CharString>
        <CharString name="A">
          -88 callsubr
          hstem
          84 callsubr
          vstem
          1044.99 hmoveto
          -105 callsubr
        </CharString>
        <CharString name="A.smcp">
          -5 callgsubr
          hstem
          83 callsubr
          vstem
          899.99 hmoveto
          -104 callsubr
        </CharString>
        <CharString name="AE">
          801 0 127 callsubr
          84.98999 256 35 247 339.01001 127 callsubr
          hstemhm
          928.48 294.5 -264.98999 289.99 hintmask 00000000
          hintmask 10110100
          1256 127 callsubr
          rmoveto
          -16.02 376 rlineto
          480.01 247 hlineto
          hintmask 10111000
          -490 hlineto
          -13.99 339 rlineto
          584.99 127 callsubr
          -595 hlineto
          -237 hlineto
          -190 hlineto
          -773.02 56 callgsubr
          353.01 hlineto
          hintmask 11110100
          163 331.98 rlineto
          429 hlineto
          14.01 -331.98 rlineto
          181 callsubr
          hlineto
          732 127 callsubr
          hlineto
          -1214 341 rmoveto
          hintmask 11111000
          269 547 23 -547 rlineto
          endchar
        </CharString>
        <CharString name="AE.smcp">
          494 0 -34 callgsubr
          -25.01001 237.99 30.01 242 198.01001 -34 callgsubr
          hstemhm
          703.97 293.49 -271.49 290.02 hintmask 10111000
          1020.99 -34 callgsubr
          rmoveto
          -9.99 243 rlineto
          441 242.02 -451.01 hlineto
          162 callsubr
          198 rlineto
          518.99 -34 callgsubr
          -529 hlineto
          -250.99 hlineto
          -206 hlineto
          -576 56 callsubr
          328 hlineto
          hintmask 01110100
          98 215.98 rlineto
          344.99 hlineto
          hintmask 10110100
          8 -215.98 rlineto
          132 hlineto
          697.02 -34 callgsubr
          hlineto
          hintmask 01111000
          -1074.01 213 rmoveto
          210 461 18 -461 rlineto
          endchar
        </CharString>
        <CharString name="Aacute">
          -88 callsubr
          79.01001 -53 callsubr
          84 callsubr
          vstem
          1066.99 1845.99 rmoveto
          -326 hlineto
          -23 callsubr
          256 -1535 rmoveto
          -105 callsubr
        </CharString>
        <CharString name="Aacute.smcp">
          -5 callgsubr
          821.01001 -53 callsubr
          83 callsubr
          vstem
          974.99 1565.98 rmoveto
          -326 hlineto
          -23 callsubr
          203 -1254.99 rmoveto
          -104 callsubr
        </CharString>
        <CharString name="Acircumflex">
          -88 callsubr
          98 168 callgsubr
          84 callsubr
          hintmask 00000000
          hintmask 11101100
          694.99 1694.99 rmoveto
          92 callsubr
          12 hlineto
          -37 callgsubr
          hintmask 11110100
          38 callsubr
          -16.02 235 vlineto
          505 -1553.98 rmoveto
          -105 callsubr
        </CharString>
        <CharString name="Acircumflex.smcp">
          -5 callgsubr
          840.01001 -75 callsubr
          291.98 hstemhm
          83 callsubr
          hintmask 00000000
          hintmask 11011000
          602.99 53 callsubr
          hintmask 11101000
          38 callsubr
          -16 235 vlineto
          451.99 -1274 rmoveto
          -104 callsubr
        </CharString>
        <CharString name="Adieresis">
          -88 callsubr
          90.01001 257.98 hstem
          303.98 159 callsubr
          4 callgsubr
          20 callgsubr
          vstem
          444.99 1545.99 rmoveto
          81 61 57 72 -28 callsubr
          57 -81 103 callgsubr
          hvcurveto
          496 hmoveto
          82 callsubr
          -81 -61 -56 170 callgsubr
          hvcurveto
          104 -1545.99 rmoveto
          -105 callsubr
        </CharString>
        <CharString name="Adieresis.smcp">
          -5 callgsubr
          832.01001 258 hstem
          4 callgsubr
          -17 callsubr
          vstem
          352.99 1265.99 rmoveto
          81 195 callgsubr
          72.99 -60.99 -91 callsubr
          51 -1265.99 rmoveto
          -104 callsubr
        </CharString>
        <CharString name="Agrave">
          -88 callsubr
          79.01001 -53 callsubr
          84 callsubr
          vstem
          861 1535 -54 callgsubr
          278 -59 callgsubr
          430 -1535 rmoveto
          -105 callsubr
        </CharString>
        <CharString name="Agrave.smcp">
          -5 callgsubr
          821.01001 -53 callsubr
          83 callsubr
          vstem
          768.98 1254.99 -54 callgsubr
          3 callsubr
          -59 callgsubr
          378 -1254.99 rmoveto
          -104 callsubr
        </CharString>
        <CharString name="Aring">
          -88 callsubr
          73.01001 94.99 214.01 -1 callgsubr
          hstem
          472.98 116 213.99 116.01 vstem
          695.99 1529 rmoveto
          129 94 -43 callsubr
          112 111 -94 151 callsubr
          -112 94 29 callgsubr
          129 hvcurveto
          309 vmoveto
          65 41.98 -50 -58 -59 -41.98 -47 -65 -66 -41 48 58 58 41 50 66 hvcurveto
          349 -1838 rmoveto
          -105 callsubr
        </CharString>
        <CharString name="Aring.smcp">
          -5 callgsubr
          815.01001 95 214 -1 callgsubr
          hstem
          380.98 116 214 116 vstem
          604 1248.99 rmoveto
          129 93.99 89 111.99 111 -93.99 151 callsubr
          -111.99 94 -89 129 hvcurveto
          309 vmoveto
          65 29 callsubr
          -18 callsubr
          -58 -59 8 callgsubr
          -46.98 -65 206 callgsubr
          -41 47.98 58 58 41 50.02 -34 callsubr
          hvcurveto
          296 -1558 rmoveto
          -104 callsubr
        </CharString>
        <CharString name="Atilde">
          -88 callsubr
          109.01001 -66 callsubr
          -100.99 89 callgsubr
          314.98 181 callgsubr
          413.99 172 hintmask 11101110
          570 1649.99 rmoveto
          hintmask 11110110
          104 45 -85 -21 callsubr
          hhcurveto
          152 callgsubr
          145.99 hvcurveto
          -172 12 rlineto
          -62 172 callgsubr
          hintmask 11101110
          -99 -70 85 -106 hhcurveto
          -133 -95 61 callgsubr
          46.02 vhcurveto
          475 -1649.99 rmoveto
          -105 callsubr
        </CharString>
        <CharString name="Atilde.smcp">
          -5 callgsubr
          851.01001 25 callsubr
          101 -101 89 callgsubr
          222.99 -56 callsubr
          413.99998 172 hintmask 00000000
          hintmask 11010110
          477.98 1369.99 rmoveto
          hintmask 11100110
          104 204 callgsubr
          71 callsubr
          -21 callsubr
          hhcurveto
          152 callgsubr
          146 hvcurveto
          -172.02 12 rlineto
          -62 -90 callgsubr
          -20 callsubr
          -46 vhcurveto
          -99 -70 -19 callgsubr
          -106 hhcurveto
          hintmask 11001110
          172 callsubr
          173 -9 rlineto
          hintmask 11010110
          61 36 -21 callgsubr
          46 vhcurveto
          hintmask 11100110
          422.01 -1369.99 rmoveto
          -104 callsubr
        </CharString>
        <CharString name="B">
          186 86 callsubr
          375.98999 219 354.01001 -86 callsubr
          119 callsubr
          433.99998 -99 callsubr
          -280.98 -53 callgsubr
          hintmask 11110100
          979.99 747.99 rmoveto
          hintmask 11111000
          145 57 28 callsubr
          120.01 -36 callgsubr
          vvcurveto
          272 -204.98 128 -343 vhcurveto
          -514.01 -79 callsubr
          120 hlineto
          443 hlineto
          hintmask 11110100
          343 188 145.98 284.02 138 -68 136 -171 -67 callgsubr
          hvcurveto
          99 callgsubr
          454 rmoveto
          hintmask 11111000
          163 8 callsubr
          -52 -129 -113 -73 -54 callsubr
          -160.99 hvcurveto
          -200 354 hlineto
          hintmask 11110100
          249 -949 rmoveto
          -249 376 262 hlineto
          147 58 -75 -121 -20 callgsubr
          -74 callgsubr
          -78.01 -151 hvcurveto
          endchar
        </CharString>
        <CharString name="B.smcp">
          12 0 -102 callsubr
          236.98999 77 callsubr
          240.01 68 callgsubr
          -67 callsubr
          339 303 -276.01001 -78 callgsubr
          hintmask 11110100
          866 108 callgsubr
          rmoveto
          hintmask 11111000
          -21 callsubr
          47 48 39 callsubr
          105 vvcurveto
          216.99 -183 105 -308 vhcurveto
          -454 -73 callsubr
          116 hlineto
          383 hlineto
          hintmask 11110100
          310 161 -37 callsubr
          232 39 callsubr
          -52.99 116.99 -146 36 hvcurveto
          hintmask 11111000
          -292 333 rmoveto
          109 54 -35 -89 21 callgsubr
          -53 -38 -115 hvcurveto
          -171 240 hlineto
          hintmask 11110100
          196 -678.99 rmoveto
          -196 236.99 209 hlineto
          114.01 -59 callsubr
          -46 -77 -57 -48 -57 -122 hvcurveto
          endchar
        </CharString>
        <CharString name="C">
          217 -20 257 982.99 257 hstem
          -28 callgsubr
          vstem
          1277.99 488 rmoveto
          -313 hlineto
          -169 -12 28 callgsubr
          -82 -181 hhcurveto
          -63 callgsubr
          -432.99 228 -270 378 358.02 179 callgsubr
          208.99 299.01 19 vhcurveto
          endchar
        </CharString>
        <CharString name="C.smcp">
          32 -75 callgsubr
          712 105 callsubr
          217 callsubr
          vstem
          1108.99 401.98 rmoveto
          -302 hlineto
          -122 141 callsubr
          -75 -53 95 callgsubr
          hhcurveto
          -64 callsubr
          -357 164 callsubr
          -216.98 334.99 309 196 94 callgsubr
          251.99 13 vhcurveto
          endchar
        </CharString>
        <CharString name="C.ss06">
          257 -11 callgsubr
          -89 callsubr
          990.98 254 hstem
          82.98 -94 callsubr
          1315.98 488 rmoveto
          -313 hlineto
          -160 -11 callgsubr
          -81 115 callgsubr
          -180 hhcurveto
          -207 -117 175.99 297 hvcurveto
          48 vlineto
          297 129 173 194 194.99 18 callgsubr
          78 callsubr
          -169 22 vhcurveto
          314 hlineto
          315 -30 -200 203 -368.99 hhcurveto
          -369 -268 -278.02 -448 hvcurveto
          -46 vlineto
          -448.98 212 callgsubr
          -276.99 380 359 136 callgsubr
          184.97 324.02 29 vhcurveto
          endchar
        </CharString>
        <CharString name="Ccedilla">
          217 -468 174.01 280.99 43 -41 43 1187.99 257 192 callgsubr
          286.00002 256 hintmask 10111100
          687.98 236.99 rmoveto
          -63 callgsubr
          -386.99 182 -257 308 104 callsubr
          -27 -127 34 callgsubr
          hvcurveto
          hintmask 11011100
          115 -76 45 140 callgsubr
          13 vhcurveto
          8 40 290 39.99 171 194 17 267 rlinecurve
          -313 hlineto
          hintmask 10111100
          -169 -12 28 callgsubr
          -82 -181 hhcurveto
          endchar
        </CharString>
        <CharString name="Ccedilla.smcp">
          32 -462 173.99 280.01 43 -42 43 902.98 68 callgsubr
          217 callsubr
          230.01 256 hintmask 10111100
          590.99 226.98 rmoveto
          -64 callsubr
          -315 152 -206 266 -49 callgsubr
          vhcurveto
          -26.99 -3 callgsubr
          rlineto
          99 -7 42 -16 -53 vvcurveto
          -57 95 callsubr
          -23.02 -2 callgsubr
          vhcurveto
          7 -174 rlineto
          234 122 97.02 145 hvcurveto
          hintmask 11011100
          115 -76 45 -74 13 vhcurveto
          6.99 39 243.02 37 149 -18 callgsubr
          12 219 rlinecurve
          -302 hlineto
          hintmask 10111100
          -122 141 callsubr
          -75 -53 95 callgsubr
          hhcurveto
          endchar
        </CharString>
        <CharString name="D">
          205 0 252.99 949 -29 callsubr
          488.99998 318.99 vstem
          578.99 12 callgsubr
          -140 hlineto
          -48 callgsubr
          -27 callsubr
          949 130 callsubr
        </CharString>
        <CharString name="D.smcp">
          15 0 -102 callsubr
          678.98999 10 callsubr
          377.98999 303 vstem
          497.99 26 callsubr
          -100 hlineto
          -303 -73 callsubr
          -40 callsubr
          678.99 151 callgsubr
        </CharString>
        <CharString name="D.ss06">
          264 166 callsubr
          216 callsubr
          550.99998 -94 callsubr
          581.98 12 callgsubr
          163 callsubr
          hlineto
          -48 callgsubr
          135.99 hlineto
          318.01 hlineto
          438.99 286 302 403.99 hvcurveto
          43 vlineto
          403.99 -286.99 303 -436.02 vhcurveto
          409 -750 rmoveto
          -251 -3 callgsubr
          -202 -304 vhcurveto
          -122 949 123 hlineto
          303 -69 callsubr
          -198 -253 hvcurveto
          endchar
        </CharString>
        <CharString name="E">
          26 0 252.99 373 245 331 -29 callsubr
          vstem
          438.99 -89 callsubr
          -95 callsubr
        </CharString>
        <CharString name="E.smcp">
          -78 callsubr
          hstem
          94.99 303 vstem
          960 921.99 rmoveto
          243 -562.02 vlineto
          -93 callgsubr
        </CharString>
        <CharString name="Eacute">
          40 callsubr
          1009.99 1847.99 55 callsubr
          244 hlineto
          -293.01 -1284 -95 callsubr
        </CharString>
        <CharString name="Eacute.smcp">
          -78 callsubr
          90.02 310.98 -22 callsubr
          vstem
          927.99 1565.98 184 callsubr
          -195.99 -59 callgsubr
          244 hlineto
          310.01 -333 rmoveto
          243 -562.02 vlineto
          -93 callgsubr
        </CharString>
        <CharString name="Ecircumflex">
          26 0 -55 callsubr
          99.99998 46 callsubr
          -69 callsubr
          196 callgsubr
          hintmask 11101100
          637.99 1696.99 rmoveto
          92 callsubr
          12 hlineto
          -37 callgsubr
          hintmask 11110100
          16 callsubr
          137 callgsubr
          vlineto
          -49 callgsubr
          -1303 -95 callsubr
        </CharString>
        <CharString name="Ecircumflex.smcp">
          -78 callsubr
          109.02 -75 callsubr
          291.98 hstemhm
          -67 callsubr
          hintmask 00000000
          hintmask 11101100
          555.99 53 callsubr
          hintmask 11110100
          38 callsubr
          -16 235 vlineto
          559 -352.01 rmoveto
          243 -562.02 vlineto
          -93 callgsubr
        </CharString>
        <CharString name="Edieresis">
          26 0 -55 callsubr
          91.99998 258 119 callsubr
          -191.99 -17 callsubr
          hintmask 00000000
          hintmask 11110110
          387.99 1547.98 rmoveto
          -5 callsubr
          -33 callgsubr
          111 callsubr
          73.02 -93 callsubr
          57 -81 -81 -60 -57 -73.02 97 callgsubr
          60 5 callsubr
          81 hvcurveto
          496 hmoveto
          -5 callsubr
          56 -83 callsubr
          73.02 -93 callsubr
          -33 callsubr
          -81 -81.02 -93 callsubr
          -45 callsubr
          -73.02 -90 callsubr
          -92 callsubr
          -56 81.02 hvcurveto
          hintmask 11101000
          -445.01 -1295 -95 callsubr
        </CharString>
        <CharString name="Edieresis.smcp">
          -78 callsubr
          101.02 258 hstemhm
          -67 callsubr
          -233 159 callsubr
          211.98 196 callsubr
          hintmask 11110110
          305.99 1265.99 rmoveto
          -38 callgsubr
          -91 callsubr
          158 -344 rmoveto
          243 -562.02 vlineto
          hintmask 11101000
          -93 callgsubr
        </CharString>
        <CharString name="Egrave">
          40 callsubr
          803.98 1536.98 rmoveto
          -198 311.01 rlineto
          -326 hlineto
          3 callsubr
          -27 callgsubr
          -118 -1284 -95 callsubr
        </CharString>
        <CharString name="Egrave.smcp">
          -78 callsubr
          90.02 310.98 -22 callsubr
          vstem
          721.98 1254.99 -54 callgsubr
          3 callsubr
          -59 callgsubr
          485.01 -333 rmoveto
          243 -562.02 vlineto
          -93 callgsubr
        </CharString>
        <CharString name="Eth">
          205 86 callsubr
          386 -66 callsubr
          377.01 -29 callsubr
          488.99998 318.99 vstem
          578.99 12 callgsubr
          -140 hlineto
          -314 -630.99 -147.98 -186 147.98 -639 -27 callsubr
          386.01 246 186 -246 377 130 callsubr
        </CharString>
        <CharString name="Eth.smcp">
          15 0 -102 callsubr
          244 -66 callsubr
          248.99998 10 callsubr
          377.98999 303 vstem
          497.99 26 callsubr
          -100 hlineto
          -303 -491.99 -210.98 -186 210.98 -486.99 -40 callsubr
          244 194 186 -194 249 151 callgsubr
        </CharString>
        <CharString name="Euro">
          53 -19 251.99 279.98999 155 124 154 277 252 hstem
          256 314.98 vstem
          872.98 232.98 rmoveto
          -174.99 -119 63.02 216.99 -8.01 hvcurveto
          329.01 155.02 -329.01 123.99 329.01 154 -326 hlineto
          198 18 110 78.99 160 callgsubr
          hhcurveto
          61 -51 callgsubr
          -13.99 -18 52 hvcurveto
          38 -89 callsubr
          rlineto
          19 -77 71 callgsubr
          12 -13 callgsubr
          hhcurveto
          -339 213 callgsubr
          -182 -346.99 -25 hvcurveto
          -170 -154 167.02 -123.99 -167.02 -155.02 168 hlineto
          -353 10.02 -34 callgsubr
          -178.99 332 hhcurveto
          -52 callsubr
          88 11 19 80 hvcurveto
          -38 251.99 rlineto
          -11 callgsubr
          -57 -63 -9.01 -74 callgsubr
          hhcurveto
          endchar
        </CharString>
        <CharString name="Euro.smcp">
          -94 -75 callgsubr
          141 173.99 72.02 175 152 105 callsubr
          214.99 -4 callgsubr
          vstem
          735.99 226.98 rmoveto
          -116 -65 48 93 -25 hvcurveto
          347.01 174 -359.01 5 callgsubr
          359.01 175 -347.01 hlineto
          99 25 64 53 115 hhcurveto
          79.01 53 -8 -21 111 callsubr
          hvcurveto
          126 callsubr
          239 rlineto
          23 -12 callgsubr
          -93 callsubr
          9.99 202 callgsubr
          hhcurveto
          -281.99 -184 -147 -247.99 -19 callsubr
          hvcurveto
          -153 -175 143 -72.01 -143 -174 152 hlineto
          -239 42 185 -144.97 285 hhcurveto
          112 callgsubr
          63 11 80 callsubr
          75 hvcurveto
          -22 239 rlineto
          -14.01 140 callsubr
          -53.99 -13 -78.01 hhcurveto
          endchar
        </CharString>
        <CharString name="F">
          -3 0 43 546.98 252 360.01001 -29 callsubr
          vstem
          1081 1201.99 rmoveto
          -86 callsubr
          -642.01 vlineto
          -314 156 callgsubr
          589.99 573.01 252 -573.01 360 hlineto
          endchar
        </CharString>
        <CharString name="F.smcp">
          -162 0 43 405.98 -103 callgsubr
          229.01 10 callsubr
          vstem
          933.99 921.99 rmoveto
          243 -536 vlineto
          -303 200 callgsubr
          448.98 486.01 244 -486.01 229 hlineto
          endchar
        </CharString>
        <CharString name="G">
          271 -20 -89 callsubr
          308.98999 228 454 253 hstem
          -71 callsubr
          81 callsubr
          564.99998 -94 callsubr
          1287.99 124 callgsubr
          rmoveto
          587 -578.99 -228 264.99 -240.99 vlineto
          -30 -31 -64 -38 -134.99 hhcurveto
          -222 -113 154 298 hvcurveto
          87 vlineto
          298.99 110 153 195 176 8 callsubr
          -70 callgsubr
          -145 126 callsubr
          vhcurveto
          303.98 hlineto
          285.98 159 callgsubr
          -167.02 202.02 -384 hhcurveto
          -367 -246.99 -256 -451.01 hvcurveto
          -85 vlineto
          -451.01 255 -253.99 379 319 174 120.99 82 70 vhcurveto
          endchar
        </CharString>
        <CharString name="G.smcp">
          60 -75 callgsubr
          195.01001 179 callgsubr
          303.99998 105 callsubr
          86 callgsubr
          444.01 303 vstem
          1119.99 204 callsubr
          rmoveto
          495 -520.99 -212.99 98 callgsubr
          -158 vlineto
          -16 -24 -54 -21.02 78 callsubr
          hhcurveto
          -184 -87 176 callsubr
          221 hvcurveto
          62 vlineto
          224.99 161 callgsubr
          100 145 138 57 -54 -111.99 18 vhcurveto
          290 hlineto
          -34 callgsubr
          -25 -143 168 -345 hhcurveto
          -310.99 -224 -204 -366 hvcurveto
          -54 callsubr
          vlineto
          -365.02 218 -202.97 333 269.99 163 89.98 100 callgsubr
          65 vhcurveto
          endchar
        </CharString>
        <CharString name="G.ss06">
          297 -11 callgsubr
          -89 callsubr
          294.99 229 466.98999 254 hstem
          82.98 -99 callsubr
          607.02 315 vstem
          1318.99 -44 callgsubr
          rmoveto
          574.01 -560 -229 245 -237 vlineto
          -29 -28 -75 -29 -124 hhcurveto
          -234 -146 112 callsubr
          276.01 hvcurveto
          94 callsubr
          vlineto
          287 135 185 205 94 callgsubr
          89 29 callgsubr
          -145 21 vhcurveto
          305.01 hlineto
          285.98 -31.01 -186 202.02 -373 hhcurveto
          -377 -268 -288.01 -440 hvcurveto
          -52 vlineto
          -427.01 291 -290.98 403 297 160 callgsubr
          120.97 82 -68 callgsubr
          vhcurveto
          endchar
        </CharString>
        <CharString name="H">
          321 0 43 574.98 253 544.04 -87 callgsubr
          -62 callgsubr
          567.01 -53 callgsubr
          vstem
          1006 12 callgsubr
          -584.99 -567.01 584.99 -314 156 callgsubr
          617.98 567.01 -617.98 313 -71 callgsubr
          vlineto
          endchar
        </CharString>
        <CharString name="H.smcp">
          112 0 43 405.98 243.99 -22 callsubr
          443 -78 callgsubr
          vstem
          840.99 26 callsubr
          -472 -443 472 -303 200 callgsubr
          448.98 443 -448.98 301 -65 callgsubr
          vlineto
          endchar
        </CharString>
        <CharString name="I">
          36 callsubr
          185 callgsubr
          457.99 hmoveto
          -71 callgsubr
          -313 -79 callsubr
          vlineto
          endchar
        </CharString>
        <CharString name="I.smcp">
          -593 0 43 hstem
          115 -89 callgsubr
          416.99 hmoveto
          -65 callgsubr
          -302 -73 callsubr
          vlineto
          endchar
        </CharString>
        <CharString name="Iacute">
          36 callsubr
          81 311 185 callgsubr
          348 1847.99 72 callgsubr
          -216 -1847.99 rmoveto
          -71 callgsubr
          -313 -79 callsubr
          vlineto
          endchar
        </CharString>
        <CharString name="Iacute.smcp">
          -593 0 43 1211.99 -53 callsubr
          115 -89 callgsubr
          314 1565.98 55 callgsubr
          209 callsubr
          310.99 rlineto
          -223 -1565.98 rmoveto
          -65 callgsubr
          -302 -73 callsubr
          vlineto
          endchar
        </CharString>
        <CharString name="Icircumflex">
          36 callsubr
          100 46 callsubr
          144.99 -53 callgsubr
          hintmask 00000000
          hintmask 11011000
          694.99 1567.99 rmoveto
          -37 callgsubr
          hintmask 11101000
          16 callsubr
          137 callgsubr
          vlineto
          hintmask 11011000
          155 141 92 callsubr
          hlineto
          hintmask 11101000
          -237 -1555.99 rmoveto
          -71 callgsubr
          -313 -79 callsubr
          vlineto
          endchar
        </CharString>
        <CharString name="Icircumflex.smcp">
          -593 0 43 1230.99 -75 callsubr
          291.98 hstemhm
          115 26 callgsubr
          hintmask 10110000
          660.99 1285.98 rmoveto
          -37 callgsubr
          hintmask 11010000
          38 callsubr
          -16 234.98 vlineto
          hintmask 10110000
          155.02 58 callgsubr
          hintmask 11010000
          -244 -1274 rmoveto
          -65 callgsubr
          -302 -73 callsubr
          vlineto
          endchar
        </CharString>
        <CharString name="Idieresis">
          36 callsubr
          92 258 hstemhm
          -89 -43 callgsubr
          -49 -53 callgsubr
          -51.99 196 callsubr
          hintmask 11110100
          52 1806.99 rmoveto
          -80.99 -60 -57 -73.02 97 callgsubr
          60 5 callsubr
          80.99 -5 callsubr
          -33 callgsubr
          111 callsubr
          73.02 -93 callsubr
          57 -81 hvcurveto
          495.99 -1 rmoveto
          -81 -93 callsubr
          -45 callsubr
          -73.02 -90 callsubr
          197 callgsubr
          81 61 56 -83 callsubr
          73.02 -61 -33 callsubr
          -81 hvcurveto
          hintmask 11101000
          -70 callgsubr
          -1805.99 rmoveto
          -71 callgsubr
          -313 -79 callsubr
          vlineto
          endchar
        </CharString>
        <CharString name="Idieresis.smcp">
          -593 0 43 1222.99 258 hstemhm
          -123 -43 callgsubr
          -44.99 -104 callgsubr
          -45 196 callsubr
          hintmask 11101000
          17.98 1524.98 rmoveto
          -80.98 -60 -57 -62 callsubr
          60 -57 80.98 -38 callgsubr
          57 -81 hvcurveto
          496 -0.99 rmoveto
          -81 194 callgsubr
          -73.02 -92 callsubr
          -45 callsubr
          81 81 61 -49 callsubr
          -61 56 -81 hvcurveto
          hintmask 11010000
          -97 -1524 rmoveto
          -65 callgsubr
          -302 -73 callsubr
          vlineto
          endchar
        </CharString>
        <CharString name="Igrave">
          36 callsubr
          81 311 185 callgsubr
          467.99 1536.98 rmoveto
          -198 311.01 rlineto
          -325.98 hlineto
          276.98 -27 callgsubr
          237 -1536.98 rmoveto
          -71 callgsubr
          -313 -79 callsubr
          vlineto
          endchar
        </CharString>
        <CharString name="Igrave.smcp">
          -593 0 43 1211.99 -53 callsubr
          115 -89 callgsubr
          433.99 1254.99 -54 callgsubr
          276.98 -59 callgsubr
          230 -1254.99 rmoveto
          -65 callgsubr
          -302 -73 callsubr
          vlineto
          endchar
        </CharString>
        <CharString name="J">
          21 15 callsubr
          hstem
          39.99 314.98 356.01 81 callgsubr
          vstem
          710.98 12 callgsubr
          -1003.99 vlineto
          -139 -69 -12 callgsubr
          -110 -110 -67.02 48 153 vhcurveto
          -314.98 hlineto
          -311.01 179 callsubr
          77 callgsubr
          286 279 213.02 210 callsubr
          292 vhcurveto
          1003.99 vlineto
          endchar
        </CharString>
        <CharString name="J.smcp">
          -135 -75 callgsubr
          hstem
          -21 callgsubr
          -104 callgsubr
          212 callgsubr
          303 vstem
          591.99 26 callsubr
          -763 vlineto
          -122 -40 -53 -81 174 callgsubr
          -45 47 105 vhcurveto
          -302 hlineto
          -272 176 -122.98 263 233 191 152.98 264.99 vhcurveto
          763 vlineto
          endchar
        </CharString>
        <CharString name="K">
          178 -70 callsubr
          -62 callgsubr
          vstem
          948.98 hmoveto
          372 hlineto
          -519.99 808.98 508.99 647 rlineto
          -385.99 hlineto
          -356 -470 -129 -183 rlineto
          653 -314 156 callgsubr
          406 vlineto
          153 94 callgsubr
          rlineto
          endchar
        </CharString>
        <CharString name="K.alt">
          199 0 43 544.98 293 534.04 191 callsubr
          -94 callsubr
          967.99 hmoveto
          374 hlineto
          -483 770.99 435 684.99 rlineto
          -380.99 hlineto
          -336.02 -575 rlineto
          95 callgsubr
          575 -314 156 callgsubr
          587.98 19 callgsubr
          hlineto
          endchar
        </CharString>
        <CharString name="K.alt2">
          201 -70 callsubr
          216 callsubr
          vstem
          1311.99 hmoveto
          -570 734.99 540 721 rlineto
          -388 hlineto
          -454 -637.99 rlineto
          637.99 -314 156 callgsubr
          637.99 vlineto
          479.99 -637.99 rlineto
          endchar
        </CharString>
        <CharString name="K.smcp">
          1 0 43 -22 callsubr
          vstem
          787.99 hmoveto
          357.01 hlineto
          -419 642.99 410.99 521.99 rlineto
          -378 hlineto
          -267 -346.99 -94 -130 rlineto
          477 -303 200 callgsubr
          -4 callgsubr
          vlineto
          123 121.02 rlineto
          endchar
        </CharString>
        <CharString name="L">
          -15 86 callsubr
          1162.02998 40.96 103 callsubr
          438.99 -89 callsubr
          rmoveto
          1203 47 callsubr
          vlineto
          732 67 callgsubr
          endchar
        </CharString>
        <CharString name="L.smcp">
          -170 0 10 callsubr
          vstem
          397.99 243 rmoveto
          921.99 -303 -73 callsubr
          195 vlineto
          631.99 243 hlineto
          endchar
        </CharString>
        <CharString name="M">
          670 0 43 1028.98 384 -40.96 -98 callgsubr
          119 callsubr
          914.01 315 hintmask 10111000
          1667.99 12 callgsubr
          -412 hlineto
          -360 -1038.99 -360.02 1038.99 rlineto
          -145 hlineto
          -266 156 callgsubr
          375.99 hlineto
          hintmask 11011000
          -31 695.99 381.01 -1071.98 rlineto
          179 callgsubr
          hlineto
          382.02 1071.98 -31 -695.99 rlineto
          -375.99 315 vlineto
          endchar
        </CharString>
        <CharString name="M.smcp">
          419 0 43 -22 callsubr
          747 303.98 vstem
          1448.98 26 callsubr
          -400 hlineto
          -278 -768 -278 768 rlineto
          -143 hlineto
          -255 200 callgsubr
          215 hlineto
          -31 618.99 304 -833.99 rlineto
          200 hlineto
          306 838.98 -20 callsubr
          -623.99 rlineto
          -215 303.98 vlineto
          endchar
        </CharString>
        <CharString name="N">
          320 -70 callsubr
          -62 callgsubr
          566.01 -53 callgsubr
          vstem
          1317.99 hmoveto
          9 callgsubr
        </CharString>
        <CharString name="N.smcp">
          111 0 43 -22 callsubr
          441.98999 -78 callgsubr
          vstem
          1140.98 hmoveto
          10 callgsubr
        </CharString>
        <CharString name="Ntilde">
          320 -9 callgsubr
          109.01001 -66 callsubr
          -100.99 185.99 119 callsubr
          -91.99 -56 callsubr
          414.01 19 callgsubr
          -100.99 -53 callgsubr
          hintmask 00000000
          hintmask 11101010
          1105.98 1832.98 rmoveto
          197 callsubr
          -62 -90 callgsubr
          -20 callsubr
          -46.02 vhcurveto
          hintmask 11010101
          -99 -70 85 -105.99 hhcurveto
          172 callsubr
          173 -8.99 rlineto
          -92 callsubr
          36 32 46 vhcurveto
          190 callsubr
          hintmask 11101010
          133 -1 callgsubr
          122 145.99 hvcurveto
          hintmask 11101001
          212 -1832.98 rmoveto
          9 callgsubr
        </CharString>
        <CharString name="Ntilde.smcp">
          111 0 43 1241.99 25 callsubr
          101 -101 89 callgsubr
          -67 callsubr
          -153.01001 181 callgsubr
          414.01001 19 callgsubr
          -164.01001 -78 callgsubr
          hintmask 00000000
          hintmask 11001010
          1003.99 1553 rmoveto
          197 callsubr
          -62 -38.02 -20 callsubr
          -46 vhcurveto
          -99 -70 -19 callgsubr
          -106 hhcurveto
          hintmask 10010101
          172 callsubr
          173.02 -9 rlineto
          hintmask 10100101
          61 162 callgsubr
          -21 callgsubr
          46.02 vhcurveto
          hintmask 11001001
          104 45 71 callsubr
          -21 callsubr
          hhcurveto
          hintmask 11001010
          152 callgsubr
          146 hvcurveto
          hintmask 11001001
          134 callsubr
          -1553 rmoveto
          10 callgsubr
        </CharString>
        <CharString name="O">
          -38 callsubr
          hstem
          -24 callsubr
          vstem
          1331 695.99 -103 callsubr
        </CharString>
        <CharString name="O.smcp">
          -82 callsubr
          hstem
          -6 callgsubr
          vstem
          1154.99 560.99 -106 callsubr
        </CharString>
        <CharString name="O.ss06">
          14 callsubr
          706.99 rmoveto
          42 vlineto
          408.99 -273.02 319.02 187 callsubr
          -319.02 -408.99 vhcurveto
          -42 vlineto
          -410.01 274 -317.97 389 391 271.02 317.97 410.01 vhcurveto
          -313.02 -67 callgsubr
          rmoveto
          -49 callgsubr
          vlineto
          -261 -129 -214 -220 -220 -130 214 261 vhcurveto
          -67 callgsubr
          vlineto
          260.02 128 4 callgsubr
          69 callgsubr
          220 -36 callgsubr
          -211.99 -260.02 vhcurveto
          endchar
        </CharString>
        <CharString name="OE">
          861 -52 callgsubr
          -222.99 -55 callsubr
          -222.99 68 callgsubr
          -1 callgsubr
          -78 callgsubr
          508.01 -53 callgsubr
          hintmask 01110110
          1217.99 -89 callsubr
          37 callgsubr
          669 -86 callsubr
          -669 vlineto
          -222 hlineto
          hintmask 10101110
          11 29 callgsubr
          -100 205 callsubr
          -101 hhcurveto
          -362.99 -247 -243 -353.02 hvcurveto
          -303.98 vlineto
          -353.02 249 -242.99 363 vhcurveto
          hintmask 01110110
          -11 callsubr
          161 callgsubr
          10.02 9.99 -43 callsubr
          hvcurveto
          120.02 hlineto
          771.99 67 callgsubr
          hintmask 10101110
          -1491 323.02 rmoveto
          305.99 vlineto
          235 119.01 116 190 69 -68 callgsubr
          -6 -8 63 vhcurveto
          -983 vlineto
          -8.01 -62 -74 callgsubr
          -5 -68 hhcurveto
          -190 -121 118 235 hvcurveto
          endchar
        </CharString>
        <CharString name="Oacute">
          -38 callsubr
          59.01001 310.98 hstemhm
          -24 callsubr
          hintmask 00000000
          hintmask 11111000
          752.99 1845.99 -23 callgsubr
          252 -1150 -82 callgsubr
        </CharString>
        <CharString name="Oacute.smcp">
          -82 callsubr
          74 -53 callsubr
          -6 callgsubr
          vstem
          651.98 1565.98 -23 callgsubr
          177 -1005 -106 callsubr
        </CharString>
        <CharString name="Ocircumflex">
          -38 callsubr
          78 168 callgsubr
          -24 callsubr
          hintmask 00000000
          hintmask 11011100
          1099.98 43 callsubr
          155 141 92 callsubr
          hlineto
          hintmask 11101100
          231.02 -857.99 -103 callsubr
        </CharString>
        <CharString name="Ocircumflex.smcp">
          -82 callsubr
          93 -75 callsubr
          291.98 hstemhm
          -6 callgsubr
          hintmask 00000000
          hintmask 11011100
          998.99 1285.98 rmoveto
          -307 280 rlineto
          -174.02 hlineto
          hintmask 11101100
          -302.98 87 callgsubr
          -16 137 callgsubr
          vlineto
          hintmask 11011100
          155 58 callgsubr
          hintmask 11101100
          156 -713.01 -106 callsubr
        </CharString>
        <CharString name="Odieresis">
          -38 callsubr
          70.01001 257.98 192 callgsubr
          28 callgsubr
          159 callsubr
          4 callgsubr
          20 callgsubr
          -81.99 318.01 hintmask 00000000
          hintmask 11101100
          456.99 1804.98 rmoveto
          103 callgsubr
          81 61 57 72 120 callgsubr
          -1 rmoveto
          -81 -61 -56 170 callgsubr
          82 callsubr
          hvcurveto
          hintmask 11010010
          378 -1107.99 -103 callsubr
        </CharString>
        <CharString name="Odieresis.smcp">
          -82 callsubr
          85 258 hstemhm
          -50 callsubr
          303 -148 62 callsubr
          -142.02 303 hintmask 00000000
          hintmask 11101100
          355.98 1524.98 rmoveto
          -81 -54 callsubr
          -57 -62 callsubr
          -50 callsubr
          -57 81 -38 callgsubr
          57 -81 hvcurveto
          496 -0.99 rmoveto
          -81 -61 105 callgsubr
          -73.02 61 -45 callsubr
          81 81 61 -49 callsubr
          -61 56 -81 hvcurveto
          hintmask 11110010
          303 -963.01 -106 callsubr
        </CharString>
        <CharString name="Ograve">
          -38 callsubr
          59.01001 310.98 hstemhm
          -24 callsubr
          hintmask 00000000
          hintmask 11111000
          872.98 1535 rmoveto
          -198 310.99 rlineto
          -325.98 hlineto
          277 -59 callgsubr
          705 -839 -82 callgsubr
        </CharString>
        <CharString name="Ograve.smcp">
          -82 callsubr
          74 -53 callsubr
          -6 callgsubr
          vstem
          771.99 1254.99 -54 callgsubr
          144 callgsubr
          -59 callgsubr
          630.01 -694 -106 callsubr
        </CharString>
        <CharString name="Oslash">
          286 -20 257 980.98 258 hstem
          -30 callsubr
          81 callsubr
          614.01 316.98 vstem
          1153.99 1295.99 rmoveto
          131 222 rlineto
          -193 hlineto
          -70 -119.01 rlineto
          50 -89 -104 27.01 -115 hhcurveto
          -367 -257 -273 -444.01 hvcurveto
          -63 vlineto
          -237 74 -188 124 -123 vhcurveto
          -142 -242.99 rlineto
          192 hlineto
          85.01 143.99 rlineto
          -45 85 99 -24 109 hhcurveto
          368 255 271.99 444 hvcurveto
          63 vlineto
          229 -68 124 callgsubr
          -117 143 callgsubr
          vhcurveto
          -746 -600 rmoveto
          65 vlineto
          297.98 109.02 159 197 -51 callgsubr
          57 -18 -36.99 46.02 vhcurveto
          -433 -737.02 rlineto
          -28 5 callgsubr
          -15.01 -30 callsubr
          108.01 vvcurveto
          614.01 hmoveto
          -295 -110 -164 -196 -54 callsubr
          -53 15 30 -43 vhcurveto
          426 728 rlineto
          24 -74 callgsubr
          12 139 callgsubr
          -98 vvcurveto
          endchar
        </CharString>
        <CharString name="Oslash.smcp">
          -82 callsubr
          -164 180 callsubr
          hstemhm
          -6 callgsubr
          hintmask 00000000
          hintmask 10111000
          1008.99 1017 rmoveto
          145 180 callsubr
          rlineto
          -170 hlineto
          hintmask 11011000
          -82 -112.99 rlineto
          50 -82.99 -101.01 27.01 -111 hhcurveto
          -322.99 -224 -222 -355 hvcurveto
          -43 vlineto
          -175 54 163 callsubr
          93 -99 vhcurveto
          -145 -200 rlineto
          170 hlineto
          82.99 113.99 rlineto
          -2 callsubr
          83 100 -25.98 111 hhcurveto
          320 226 220.97 356 hvcurveto
          43 vlineto
          hintmask 10111000
          19 callgsubr
          -54 142 -92 99 vhcurveto
          hintmask 11011000
          -646 -456.01 rmoveto
          44 vlineto
          213 85.02 122 7 callgsubr
          56 47.99 -17 -30 38 vhcurveto
          -362 -500 rlineto
          -16 47 -8.01 -33 callsubr
          65 vvcurveto
          489 hmoveto
          -211 -70 callgsubr
          -3 callgsubr
          -153 -56 -47.99 14.99 30 -37 vhcurveto
          361 499 rlineto
          15 -46 8 6 callsubr
          -63 vvcurveto
          endchar
        </CharString>
        <CharString name="Otilde">
          -38 callsubr
          89.01001 -66 callsubr
          -100.99 185.99 192 callgsubr
          -50 callgsubr
          181 callgsubr
          413.99 172 -73 318.01 hintmask 00000000
          hintmask 11101010
          1085.99 1832.98 rmoveto
          -172 12 rlineto
          -62 -90 callgsubr
          -20 callsubr
          -46 vhcurveto
          hintmask 11010101
          -99 -70 85 -106 hhcurveto
          -133 109 callgsubr
          61 callgsubr
          46 vhcurveto
          hintmask 11101001
          176 callsubr
          45 -85 126 hhcurveto
          hintmask 11101010
          152 callgsubr
          145.99 hvcurveto
          hintmask 11101001
          245 -1136.99 -103 callsubr
        </CharString>
        <CharString name="Otilde.smcp">
          -82 callsubr
          104 25 callsubr
          101 -101 89 callgsubr
          -50 callsubr
          303 -137 -56 callsubr
          414.01 19 callgsubr
          -133.00002 303 hintmask 0000000000000000
          hintmask 1110010100000000
          984.99 1553 rmoveto
          -172 12 rlineto
          -62 172 callgsubr
          -99 -70 -19 callgsubr
          -106 hhcurveto
          hintmask 1100101010000000
          -133 78 callsubr
          206 callsubr
          173 -9 rlineto
          hintmask 1101001010000000
          61 36 -21 callgsubr
          46 vhcurveto
          hintmask 1110010010000000
          104 45 71 callsubr
          126.01 hhcurveto
          hintmask 1110010100000000
          133 -1 callgsubr
          122 146 hvcurveto
          hintmask 1110010010000000
          170 -992.01 -106 callsubr
        </CharString>
        <CharString name="P">
          200 0 43 462.99 -86 callsubr
          442.01 -29 callsubr
          492.99998 317 vstem
          697 12 callgsubr
          -572.01 156 callgsubr
          506 212 callgsubr
          hlineto
          344.99 207 -44 callgsubr
          282.01 280.98 -207 205 -344.99 hvcurveto
          -695.99 vmoveto
          -258.01 442 212 callgsubr
          hlineto
          94 callgsubr
          69 -111 -123 -121 -69 -87 -165.99 hvcurveto
          endchar
        </CharString>
        <CharString name="P.smcp">
          22 0 43 333.99 -102 callsubr
          301.99998 10 callsubr
          381 -78 callgsubr
          vstem
          594.98 26 callsubr
          -500 200 callgsubr
          377 197 hlineto
          113 callgsubr
          183.99 -12 callsubr
          225 236 -183.99 19 callgsubr
          -301.02 hvcurveto
          -544.99 vmoveto
          -197 302 197 hlineto
          126.02 58 -78 29 callgsubr
          -77 -58 -58 183 callsubr
          hvcurveto
          endchar
        </CharString>
        <CharString name="Q">
          -38 callsubr
          hstem
          81 81 callsubr
          613.98999 317 vstem
          1329.99 695.99 rmoveto
          63 vlineto
          444.01 -257 273 -368 -367 -256.98 -273 -444.01 vhcurveto
          -63 vlineto
          -444 213 callsubr
          -271.99 367 37 35 3 5 34 vhcurveto
          309.98 -251 197.02 175 -238 112 callsubr
          rlineto
          155 121 93 206 268 vvcurveto
          -931 hmoveto
          65 vlineto
          297.98 109 159 197 164 callsubr
          111.99 -159 -297.98 vhcurveto
          -65 vlineto
          -295 -110 -164 -195.99 -197 -111 164 295 vhcurveto
          endchar
        </CharString>
        <CharString name="Q.smcp">
          -82 callsubr
          hstem
          -6 callsubr
          491.01 -89 callgsubr
          1157 560.99 rmoveto
          43 vlineto
          355 -229 222 -319 -323.01 -222.99 -222 -355 vhcurveto
          -43 vlineto
          -356 224.99 -220.97 322.01 201 callsubr
          26.01 21 callsubr
          3 135 callsubr
          vhcurveto
          267 -207 188 162.02 -194 146.98 rlineto
          130 98 70 callgsubr
          162 210 vvcurveto
          -793 hmoveto
          44 vlineto
          213 86 122 159 -18 callgsubr
          92.02 -122 -213 vhcurveto
          -44 vlineto
          -211 -61 callsubr
          -3 callgsubr
          107 callsubr
          -159 -87 -69 callsubr
          211 vhcurveto
          endchar
        </CharString>
        <CharString name="Q.ss06">
          14 callsubr
          715.98 rmoveto
          23 vlineto
          432 -273.02 306.02 187 callsubr
          -306.02 -432 vhcurveto
          -23 vlineto
          -431.99 274 -304.98 389 56.02 53 6 12 50 vhcurveto
          287 -250.02 198 175 -234 199 rlineto
          158 129.99 94 210 255 vvcurveto
          -1012.02 hmoveto
          25 vlineto
          285 128 197 69 callgsubr
          220 -36 callgsubr
          -197 -285 vhcurveto
          -25 vlineto
          -283 -129 -200.99 -220 -220 -130 200.99 283 vhcurveto
          endchar
        </CharString>
        <CharString name="R">
          190 0 43 482.98 -86 callsubr
          422.02 -29 callsubr
          463.99998 -94 callsubr
          957.99 606.99 rmoveto
          158 72 -11 callsubr
          121 216 vvcurveto
          287 -205.99 152.99 -336.02 vhcurveto
          -549.99 156 callgsubr
          525.99 227 hlineto
          268 -525.99 rlineto
          336 14.99 hlineto
          -831 1187 rmoveto
          114 callgsubr
          hlineto
          153 75 -81 -131 -128 -76 -82 -152 hvcurveto
          7 callsubr
          hlineto
          endchar
        </CharString>
        <CharString name="R.alt">
          210 0 29 532.99 -89 callsubr
          387.01 -86 callsubr
          hstemhm
          216 callsubr
          450.99998 81 callgsubr
          -298.01 -53 callgsubr
          hintmask 11111000
          1204 251.99 rmoveto
          95 vlineto
          168 -60 130 -187 53 vhcurveto
          hintmask 11110100
          162 62 100 97 170 vvcurveto
          273 -178 156 -333 vhcurveto
          -582 156 callgsubr
          561.99 240 hlineto
          hintmask 11111000
          145 100 callgsubr
          -77 -140 hvcurveto
          -91 vlineto
          -42 4.02 -163 -92 callsubr
          -2 callsubr
          vhcurveto
          323.01 29 hlineto
          -61 47.99 -13.99 126.02 138 callgsubr
          vvcurveto
          hintmask 11110100
          -526 563 rmoveto
          -238 387.01 249 hlineto
          151 66 -83 -118 -118.99 -75 -74 callgsubr
          -153 hvcurveto
          endchar
        </CharString>
        <CharString name="R.smcp">
          25 0 43 352.98 123 callsubr
          -43 callgsubr
          10 callsubr
          362 -89 callgsubr
          844.98 477.98 rmoveto
          131 60 86 88 191 vvcurveto
          229 -185 207 callsubr
          -289.01 vhcurveto
          -493 200 callgsubr
          395.98 169 hlineto
          213 -395.98 rlineto
          325.02 12.98 hlineto
          -707.01 909 rmoveto
          190 hlineto
          111 61 -44 callsubr
          -61 callsubr
          -93 -58 -44 callsubr
          142 callsubr
          hvcurveto
          -190 hlineto
          endchar
        </CharString>
        <CharString name="S">
          140 -20 124 callsubr
          999 248.99 hstemhm
          160 callsubr
          315 -270 -53 callgsubr
          452.99998 -99 callsubr
          hintmask 11011000
          601.99 606.99 rmoveto
          231 -74 46 -51 -98 vvcurveto
          -88 -30 callgsubr
          140 callsubr
          -149 vhcurveto
          hintmask 11101000
          -170 -110 134 callgsubr
          174 hvcurveto
          -315 hlineto
          -335.01 303 -148.99 292 321.99 208 148 257.98 242 -168 134 callsubr
          -315.98 97 vhcurveto
          hintmask 11011000
          -182 56.02 -101.01 -33 callsubr
          93 vvcurveto
          88 74.02 72 150 156 73.99 -83 -118 vhcurveto
          313 hlineto
          267 -215 183 -321.99 -317.01 -226 -161.02 -245.99 -256 225 -121 264 203 callsubr
          vhcurveto
          endchar
        </CharString>
        <CharString name="S.smcp">
          -22 -80 callsubr
          220.98 755.01001 220.99 102 callsubr
          345.98999 -104 callgsubr
          -288.98 286 hintmask 11010100
          203 callgsubr
          466.98 rmoveto
          117 callsubr
          vhcurveto
          hintmask 11100100
          -152 -70.99 49 120 hvcurveto
          -302 hlineto
          -279 213 callsubr
          -110.98 249 279 183 123.98 217 145 callsubr
          hintmask 11011000
          59 callsubr
          116 65 140 callsubr
          -75 vhcurveto
          302 hlineto
          233 -200.99 131 -284 -259.01 -188.99 -141 -205 vhcurveto
          hintmask 11010100
          -213 132 174 callsubr
          297 -69 vhcurveto
          endchar
        </CharString>
        <CharString name="T">
          149 0 43 1158.99 88 callsubr
          476.99 -53 callgsubr
          vstem
          1233.98 12 callgsubr
          -443.99 hlineto
          -750 -253.99 437 -1201.99 313 1201.99 443.99 hlineto
          endchar
        </CharString>
        <CharString name="T.smcp">
          -13 0 43 878.98 105 callsubr
          398.99 304 vstem
          1078.99 26 callsubr
          -375.99 hlineto
          -671.01 -243 367 -921.99 304 921.99 375.99 hlineto
          endchar
        </CharString>
        <CharString name="Thorn">
          127 0 43 -34 callgsubr
          -102 callsubr
          421.99998 -103 callgsubr
          222.04999 -87 callgsubr
          128.98 -104 callgsubr
          457.02 -89 callgsubr
          647.99 1192.98 rmoveto
          -217 263 -302 -79 callsubr
          302 284 217 hlineto
          351 191 189.99 264.01 264.99 -191 190 -351 hvcurveto
          -665.99 vmoveto
          -217 421.99 217 hlineto
          172 68 -20 callgsubr
          -111 -108.99 -68 -100 -172 hvcurveto
          endchar
        </CharString>
        <CharString name="Thorn.smcp">
          -78 0 43 174.99 -103 callgsubr
          300.99998 243.99 -22 callsubr
          306.01 -78 callgsubr
          vstem
          519.99 1006.98 rmoveto
          -122 158 -303 200 callgsubr
          98 callgsubr
          122 hlineto
          301 184 162 235 226 -184 94 callgsubr
          -301 hvcurveto
          -545 vmoveto
          -122 301 122 hlineto
          126 58.02 -70 -80 -86 -58.02 -65 -126 hvcurveto
          endchar
        </CharString>
        <CharString name="U">
          -48 callsubr
          hstem
          6 callgsubr
          315 496 -94 callsubr
          1238 1455.98 -100 callsubr
        </CharString>
        <CharString name="U.smcp">
          45 -75 callgsubr
          hstem
          2 callsubr
          vstem
          1077.99 26 callsubr
          -303 -751.99 hlineto
          -100 callgsubr
        </CharString>
        <CharString name="Uacute">
          15 callgsubr
          718.99 1845.99 -23 callgsubr
          193 -390 -100 callsubr
        </CharString>
        <CharString name="Uacute.smcp">
          31 callsubr
          627 1565.98 rmoveto
          182 callgsubr
          -59 callgsubr
          244 hlineto
          209 callsubr
          310.99 rlineto
          -69 callsubr
          -401 rmoveto
          -303 -751.99 hlineto
          -100 callgsubr
        </CharString>
        <CharString name="Ucircumflex">
          -48 callsubr
          98 168 callgsubr
          6 callgsubr
          315 496 196 callgsubr
          hintmask 11011100
          1065.98 43 callsubr
          -12 callsubr
          141 92 callsubr
          hlineto
          hintmask 11101100
          172.02 -98 -100 callsubr
        </CharString>
        <CharString name="Ucircumflex.smcp">
          45 -75 callgsubr
          1047.01001 -75 callsubr
          291.98 hstemhm
          2 callsubr
          hintmask 00000000
          hintmask 10111000
          973.99 1285.98 rmoveto
          -37 callgsubr
          hintmask 11011000
          38 callsubr
          -16 137 callgsubr
          vlineto
          hintmask 10111000
          155 58 callgsubr
          104 -109.02 rmoveto
          -303 hlineto
          hintmask 11011000
          -751.99 vlineto
          -100 callgsubr
        </CharString>
        <CharString name="Udieresis">
          -48 callsubr
          90.01001 257.98 hstemhm
          6 callgsubr
          315 -146.01001 -43 callgsubr
          212.02 20 callgsubr
          95 callgsubr
          -99 callsubr
          hintmask 11110010
          207 callgsubr
          1804.98 rmoveto
          103 callgsubr
          hvcurveto
          hintmask 11101010
          -5 callsubr
          57 72 hvcurveto
          hintmask 11110010
          170 callsubr
          496 -1 rmoveto
          hintmask 11110100
          -81.02 194 callgsubr
          -73.01 -92 callsubr
          -56 81.02 hvcurveto
          hintmask 11110010
          82 callsubr
          hvcurveto
          319 -348 -100 callsubr
        </CharString>
        <CharString name="Udieresis.smcp">
          45 -75 callgsubr
          1039.01001 258 hstemhm
          51 callgsubr
          -202.99 -17 callsubr
          -194.00002 303 hintmask 11100100
          331 1524.98 rmoveto
          -81 -60 -57 -62 callsubr
          60 -57 81 hvcurveto
          hintmask 11010100
          81 195 callgsubr
          hvcurveto
          hintmask 11100100
          170 callsubr
          495.99 -0.99 rmoveto
          hintmask 11101000
          -81 194 callgsubr
          -73.02 -92 callsubr
          -45 callsubr
          81 hvcurveto
          hintmask 11100100
          81 61 -49 callsubr
          -61 56 -81 hvcurveto
          251 -359.02 rmoveto
          -303 -751.99 hlineto
          -100 callgsubr
        </CharString>
        <CharString name="Ugrave">
          15 callgsubr
          838.98 1535 -54 callgsubr
          3 callsubr
          -59 callgsubr
          646 -79.02 -100 callsubr
        </CharString>
        <CharString name="Ugrave.smcp">
          31 callsubr
          746.99 1254.99 -54 callgsubr
          3 callsubr
          -59 callgsubr
          178 callgsubr
          -61 callsubr
          rmoveto
          -303 -751.99 hlineto
          -100 callgsubr
        </CharString>
        <CharString name="V">
          218 -70 callsubr
          4.99 1334.98 vstem
          989.98 12 callgsubr
          -319 -1082 -319 1082 rlineto
          -346.99 hlineto
          500 56 callgsubr
          -11 callsubr
          hlineto
          230 hlineto
          504 67 callsubr
          endchar
        </CharString>
        <CharString name="V.smcp">
          39 0 43 -43 275.98 hstemhm
          -3.99 1171.98 hintmask 10100000
          850.98 26 callsubr
          hintmask 01100000
          -262 -845.99 -7.99 -43 -10.02 47 -258.99 841.99 rlineto
          -315.98 hlineto
          419.98 56 callsubr
          111 hlineto
          218.99 hlineto
          422.01 68 callsubr
          endchar
        </CharString>
        <CharString name="W">
          664 -70 callsubr
          -21 callgsubr
          1725.99 vstem
          1445.99 12 callgsubr
          -188 -1012 110 callsubr
          1012 rlineto
          -99 hlineto
          -167 hlineto
          -229 -1012 -189 1012 rlineto
          -312 hlineto
          320 56 callgsubr
          138 hlineto
          180 hlineto
          225.02 945.99 226 -945.99 rlineto
          117 hlineto
          200.99 hlineto
          319 67 callsubr
          endchar
        </CharString>
        <CharString name="W.smcp">
          406 0 43 hstem
          29 1467.98 vstem
          1207.99 26 callsubr
          -141 -768 182 callsubr
          768 rlineto
          -113.01 hlineto
          -152 hlineto
          -170 -770.99 -140.99 770.99 rlineto
          -290 hlineto
          266 56 callsubr
          140 hlineto
          163 hlineto
          163 705.99 168 -705.99 rlineto
          124 hlineto
          179 hlineto
          265 68 callsubr
          endchar
        </CharString>
        <CharString name="X">
          179 -70 callsubr
          17.98 1267.99 vstem
          651.98 960.98 rmoveto
          -262.98 495 rlineto
          -360 hlineto
          419 -722 -430.02 -733.98 rlineto
          363 hlineto
          271 503.99 271.01 -503.99 rlineto
          362.99 hlineto
          -430 733.98 419 722 rlineto
          -359 hlineto
          endchar
        </CharString>
        <CharString name="X.smcp">
          1 0 43 hstem
          -1 1123 vstem
          547.98 797 rmoveto
          -193.99 367.99 rlineto
          -345 hlineto
          352.99 -577.99 -362.98 -587 rlineto
          347.99 hlineto
          204 374.99 214 -374.99 rlineto
          357.01 hlineto
          -383.02 587 352.02 178 callgsubr
          rlineto
          -347 hlineto
          endchar
        </CharString>
        <CharString name="Y">
          147 -70 callsubr
          476.99 81 callsubr
          vstem
          635.99 808.98 9 callsubr
        </CharString>
        <CharString name="Y.smcp">
          -18 0 43 hstem
          398.99 -89 callgsubr
          1110 26 callsubr
          -326 hlineto
          -231 -484 110 callsubr
          484 rlineto
          -326.98 hlineto
          402.98 -746.99 rlineto
          -418 302 407 vlineto
          endchar
        </CharString>
        <CharString name="Yacute">
          147 -9 callgsubr
          79.01001 -53 callsubr
          476.99 81 callsubr
          vstem
          683.99 1845.99 -23 callgsubr
          -374 -1037 9 callsubr
        </CharString>
        <CharString name="Yacute.smcp">
          -18 0 43 1211.99 -53 callsubr
          398.99 -89 callgsubr
          913.98 1565.98 rmoveto
          -326 hlineto
          -23 callsubr
          474.01 -61 callsubr
          184 callsubr
          -231 -484 110 callsubr
          484 rlineto
          -326.98 hlineto
          402.98 -746.99 rlineto
          -418 302 407 vlineto
          endchar
        </CharString>
        <CharString name="Z">
          119 166 callsubr
          18 callsubr
          1115.99 vstem
          466.98 -89 callsubr
          rmoveto
          707.02 1028 rlineto
          175 -107.01 vlineto
          -996 -253.99 712.01 hlineto
          -711 -1022 rlineto
          -180 80 vlineto
          1035 67 callgsubr
          endchar
        </CharString>
        <CharString name="Z.smcp">
          -50 0 -102 callsubr
          678.98999 105 callsubr
          52.98 980 vstem
          455.99 243 rmoveto
          571 769.99 rlineto
          152 -97 vlineto
          -877.02 -243 581.02 hlineto
          -577 -765.99 rlineto
          -156 70 vlineto
          906 243 hlineto
          endchar
        </CharString>
        <CharString name="a">
          -88 callgsubr
          -84 callsubr
          297.98999 110 callgsubr
          hintmask 01110110
          989 267 -105 callgsubr
          hintmask 10111010
          -98 callsubr
          hintmask 01110110
          -77 callsubr
          -22 callgsubr
          hintmask 10111010
          -102 callgsubr
        </CharString>
        <CharString name="aacute">
          -88 callgsubr
          123.01001 311 -84 callsubr
          297.98999 110 callgsubr
          hintmask 01111011
          919.98 1536 55 callsubr
          244 hlineto
          347.01 -958 -105 callgsubr
          hintmask 10111101
          -98 callsubr
          hintmask 01111011
          -77 callsubr
          -22 callgsubr
          hintmask 10111101
          -102 callgsubr
        </CharString>
        <CharString name="acircumflex">
          -88 callgsubr
          142.01001 15.99 -15.99 292 -84 callsubr
          297.98999 110 callgsubr
          hintmask 0000000000000000
          hintmask 0111010010000000
          547.98 1384.98 rmoveto
          156.02 17 callsubr
          12 hlineto
          65 callgsubr
          hintmask 0111100110000000
          16 callsubr
          235 vlineto
          596 -977 -105 callgsubr
          hintmask 1011101010000000
          -98 callsubr
          hintmask 0111100010000000
          -77 callsubr
          hintmask 0111100110000000
          -22 callgsubr
          hintmask 1011101010000000
          -102 callgsubr
        </CharString>
        <CharString name="acute">
          -442 1224.99 311 hstem
          98.97 522.01 vstem
          294.99 1536 rmoveto
          182 callgsubr
          -27 callgsubr
          245 hlineto
          3 callsubr
          311.01 rlineto
          endchar
        </CharString>
        <CharString name="acutecomb">
          -1125 1224.99 311 hstem
          -684.99 522.99 vstem
          -488 1536 rmoveto
          -197 -27 callgsubr
          245 hlineto
          278 311.01 rlineto
          endchar
        </CharString>
        <CharString name="adieresis">
          -88 callgsubr
          134 258 -84 callsubr
          -232 62 callsubr
          -249.02 110 callgsubr
          hintmask 0111100101000000
          297.98 1235.99 rmoveto
          -38 callgsubr
          189 callgsubr
          -17 callgsubr
          hvcurveto
          hintmask 0111100110000000
          496 101 callsubr
          -61 -16 callgsubr
          61 -56 81 hvcurveto
          hintmask 0111101001000000
          195 -968.99 -105 callgsubr
          hintmask 1011110001000000
          -98 callsubr
          hintmask 0111100101000000
          -77 callsubr
          hintmask 0111101001000000
          -22 callgsubr
          hintmask 1011110001000000
          -102 callgsubr
        </CharString>
        <CharString name="ae">
          605 -20 219.99 -219.99 -102 callsubr
          220.98999 201 -187.98999 194.99 207.01 68 callgsubr
          131 callgsubr
          -265.98 -78 callgsubr
          321.99998 297 363.01001 294.99 hintmask 0110110110000000
          1678.99 611.98 rmoveto
          113 callgsubr
          -170 112 callsubr
          -285 vhcurveto
          -134 1 -107.99 -38 -82 -30 callgsubr
          rrcurveto
          69 -77 -111 35 95 callgsubr
          hhcurveto
          hintmask 0101101110000000
          -287.01 -187 77 callgsubr
          -197 hvcurveto
          301 -19 rlineto
          64 62 52 108 98 54 -59 115 callgsubr
          vhcurveto
          -52.02 -157 vlineto
          hintmask 0101110110000000
          19 callsubr
          -173.02 -120 -211 79 callsubr
          126 callgsubr
          -134 262 112 callsubr
          127 160 callsubr
          76 73.02 hvcurveto
          -91 88 128.99 -53 123 callgsubr
          hhcurveto
          -44 callgsubr
          150 62.99 58 72 hvcurveto
          -78.01 196 rlineto
          -39 21 callgsubr
          -77 -35 95 callgsubr
          hhcurveto
          hintmask 0110110110000000
          -167.02 21 callgsubr
          93 128 -15.01 hvcurveto
          660.01 hlineto
          -295 201 rmoveto
          -363.01 hlineto
          127 17 58 87 128 hhcurveto
          109 137 callsubr
          -74 -113.01 hvcurveto
          hintmask 1001110110000000
          -1017.02 -355 rmoveto
          73 70 -68 callgsubr
          132.02 vhcurveto
          -12 callsubr
          -183 hlineto
          -40 -49 21 callgsubr
          -34 -68 hhcurveto
          -111 -51 callsubr
          46 71 hvcurveto
          endchar
        </CharString>
        <CharString name="agrave">
          -88 callgsubr
          123.01001 311 -84 callsubr
          297.98999 110 callgsubr
          hintmask 01111011
          713.99 -39 callsubr
          144 callgsubr
          -27 callgsubr
          522.02 -958 -105 callgsubr
          hintmask 10111101
          -98 callsubr
          hintmask 01111011
          -77 callsubr
          -22 callgsubr
          hintmask 10111101
          -102 callgsubr
        </CharString>
        <CharString name="alpha">
          29 -11 callgsubr
          247.97 -246.98 -80 callgsubr
          hstemhm
          86 callgsubr
          359.02 26 callgsubr
          hintmask 10111000
          1124.99 229.99 rmoveto
          -2 -5 -6 -1 -8.99 hhcurveto
          95 callsubr
          4 callsubr
          32.02 99 hvcurveto
          724 -262 vlineto
          -22 -129 rlineto
          93 -60 -82 -33 callsubr
          -113.99 hhcurveto
          -275 -148 -235 -331 hvcurveto
          -11 callgsubr
          vlineto
          hintmask 01111000
          -313 148 -222 273 -21 callsubr
          88 64 127 callgsubr
          60 vhcurveto
          -115 138 callgsubr
          88 -52.98 121.02 hhcurveto
          46 162 callgsubr
          2.99 20.99 44 hvcurveto
          -582 220 rmoveto
          -146 -49 124 119 callgsubr
          76.99 52 -35 -60 33.02 vhcurveto
          -455 vlineto
          6 callsubr
          -33.02 -52 -31 71 callgsubr
          hhcurveto
          endchar
        </CharString>
        <CharString name="alpha.alt">
          68 -11 callgsubr
          242.97 -221.98 43 815.99 68 callgsubr
          86 callgsubr
          hintmask 00000000
          hintmask 01110000
          1117 hmoveto
          -115.02 540 108.02 542 rlineto
          -264.01 hlineto
          -23 -162.02 rlineto
          113.01 -67.99 -99 69 -146 hhcurveto
          -285 -154 -235 -331 hvcurveto
          -11 callgsubr
          vlineto
          hintmask 10110000
          -313 154 -222.98 283 151 101.01 68.97 112 68 vhcurveto
          hintmask 01110000
          25 -159.99 rlineto
          71 callsubr
          489.98 rmoveto
          hintmask 10110000
          -139 -7 -53 -129 -140 hhcurveto
          -146 -49 143 callgsubr
          119 callgsubr
          138 -68 callsubr
          -141 -157 5.02 vhcurveto
          endchar
        </CharString>
        <CharString name="ampersand">
          229 -11 callgsubr
          243.98 -222.98999 43 -43 -86 callsubr
          979.98999 123 callsubr
          hstemhm
          160 callsubr
          -104 callgsubr
          -175.99 266.99 259.01 248.99 15.99998 254.99 hintmask 00000000
          hintmask 01011011
          1327.98 hmoveto
          hintmask 00111011
          -218.99 -86 callsubr
          rlineto
          94 126 158 callsubr
          161 178 vvcurveto
          -255 hlineto
          109 callgsubr
          -22 -86 -37 -72 vhcurveto
          -243 281 rlineto
          hintmask 10010110
          91 65 rlineto
          113 81 82 106 134 vvcurveto
          186 -146 158 -228 -243 -158 -157 -230 -110 51 -96.99 112 callgsubr
          -115 vhcurveto
          hintmask 10011010
          -154 -109.02 -106.99 -98 -169 vvcurveto
          -240.99 182 182 callsubr
          292.99 143 116.98 33.97 71 111 vhcurveto
          hintmask 01010110
          -32 callsubr
          139 callgsubr
          rlineto
          -393.01 1233.98 rmoveto
          139 callsubr
          46 -62 -59 -54 -17 -46.98 -83 -53 hvcurveto
          -74 -48 rlineto
          -51 callsubr
          -51 callgsubr
          -34 58 58 vvcurveto
          77 204 callgsubr
          63 87.99 vhcurveto
          hintmask 10011010
          -34 -1011 rmoveto
          -111.98 -78.01 78 110 -33 callsubr
          14.01 55 -51 callgsubr
          -50 callsubr
          hvcurveto
          18 13 279 -320 rlineto
          -34 -59 -64 -18 -65 hhcurveto
          endchar
        </CharString>
        <CharString name="ampersand.smcp">
          222 -20 241 -221 43 -43 196.99 -196.99 560.98 393.01001 227 hstemhm
          83.99 -104 callgsubr
          79 callsubr
          257 214 259.99 17.99998 256 hintmask 0000000000000000
          hintmask 0100101110000000
          1256 hmoveto
          hintmask 0010101110000000
          -199 197 rlineto
          hintmask 0001101110000000
          77 88 76 callsubr
          115 161 vvcurveto
          -256 hlineto
          -71 -17 -63 -33 -52 vhcurveto
          -201 199 rlineto
          hintmask 1000101100000000
          55 34 rlineto
          103 -34 callsubr
          75 -30 callsubr
          110 vvcurveto
          188 -144 119 -227 -230 143 callsubr
          -139.02 -150 -118 94 callsubr
          -75 87.02 -91 vhcurveto
          -24 -14.99 rlineto
          hintmask 1000110100000000
          -131 -82 -81 -12 callgsubr
          -134 vvcurveto
          -184 174 -132.99 279 120.01 116.99 25 76 callsubr
          101 vhcurveto
          hintmask 0100101100000000
          55 6 callsubr
          rlineto
          -494 861 rmoveto
          50 162 callgsubr
          43 71 160 callsubr
          75 callsubr
          -41 -40.02 -39 -13 -28 -82 -50 129 callgsubr
          -24 rlineto
          -48 47.99 -33 75 callsubr
          42 vvcurveto
          hintmask 1000110100000000
          104 -640 rmoveto
          -97.02 -57 40.99 -68 callgsubr
          31 14 158 callsubr
          -68 callsubr
          35 hvcurveto
          25 16.02 209 -207.02 rlineto
          -13 -49 callgsubr
          -18 callsubr
          162 callsubr
          6 callsubr
          hhcurveto
          endchar
        </CharString>
        <CharString name="aring">
          -88 callgsubr
          117.01001 95 214 -1 callgsubr
          -84 callsubr
          -63.01001 116.01 214.00002 116 -85.01001 110 callgsubr
          hintmask 0111110010100000
          548.99 1218.99 rmoveto
          hintmask 0111110011000000
          129 94 89 111.99 111 -94 151 callsubr
          hvcurveto
          hintmask 0111110010100000
          -111.99 94 -89 129 vhcurveto
          hintmask 0111110011000000
          309 vmoveto
          65 42 -50 -58 177 callgsubr
          -42 -47 -65 206 callgsubr
          -40.98 47.99 58 58 40.98 50 -34 callsubr
          hvcurveto
          hintmask 0111110100100000
          440.01 -1261 -105 callgsubr
          hintmask 1011111000100000
          -98 callsubr
          hintmask 0111110010100000
          -77 callsubr
          hintmask 0111110100100000
          -22 callgsubr
          hintmask 1011111000100000
          -102 callgsubr
        </CharString>
        <CharString name="asciicircum">
          -224 1415.01999 -87 callgsubr
          -59 callsubr
          818.01 vstem
          861 728.99 rmoveto
          -299 727 rlineto
          -44 callsubr
          hlineto
          -170 hlineto
          -299.01 -727 rlineto
          236 hlineto
          173 455 173 -455 rlineto
          endchar
        </CharString>
        <CharString name="asciitilde">
          195 371.99 127 callsubr
          -32.99 245 hstemhm
          127 callgsubr
          220.99 670.98999 220.01 hintmask 00000000
          hintmask 10110000
          1215 796 rmoveto
          -220.02 1 rlineto
          -101 -52.98 -77 -77 -51 -46 27 54 -55 vhcurveto
          hintmask 01110000
          87 -88 139 callgsubr
          -13 callsubr
          -106 hhcurveto
          182 callgsubr
          -135.99 -156.02 -261.98 hvcurveto
          221 -3 rlineto
          100 51 76 76 54 45 -29 -53 55 vhcurveto
          hintmask 10110000
          -91 94.99 75 -41 107.01 hhcurveto
          194.99 138.02 181 callsubr
          259.01 hvcurveto
          endchar
        </CharString>
        <CharString name="asterisk">
          -190 1183.01999 -98 callgsubr
          191.04 -87 callgsubr
          390.49 178.99 vstem
          344.99 960 rmoveto
          -220 -272.02 163 -110 181 159 callsubr
          124 callgsubr
          -293 162.02 115 -212 266 322.01 89 -60 186 -305 -3 callgsubr
          21.01 356.99 rlineto
          -200 hlineto
          21.01 -350 -313.02 128 -93 callsubr
          -184 rlineto
          endchar
        </CharString>
        <CharString name="at">
          709 -452.99 210 callsubr
          252.01 166.97 -163.98 183.99 642 -44 callgsubr
          257.99998 94 callgsubr
          hstemhm
          202 callsubr
          77 callsubr
          233.01 229.99 819.01 184.99 hintmask 11011111
          963.99 1413.98 rmoveto
          -523 -337 -406 -547 -24 hvcurveto
          -594.98 -22 302 -319 530.99 hhcurveto
          124 156 29 60 93 hvcurveto
          -90 callgsubr
          157.99 rlineto
          -90 callgsubr
          -84 -130.99 -29 -116 hhcurveto
          -408 -227 251 482.98 22 hvcurveto
          450.01 21 249.02 337 408 hhcurveto
          433.99 191 -284 -430 -11 callgsubr
          hvcurveto
          -220 -7 71 callsubr
          -168.02 183 callsubr
          hhcurveto
          -56 -61 29 143 callgsubr
          14.01 hvcurveto
          52 581 rlineto
          57 -81 -74 52 -155 hhcurveto
          -239 -193 -217.99 -339 -90 callgsubr
          hvcurveto
          hintmask 10111111
          -272 -25.01 119.01 -178.99 194.99 hhcurveto
          105 177 callsubr
          47 92 100 callgsubr
          hvcurveto
          hintmask 11011111
          -61 callsubr
          43 87 -51.98 112 hhcurveto
          307 124 285.98 144 callgsubr
          10 hvcurveto
          521.01 22 -284 350.99 -523 hhcurveto
          hintmask 10111111
          -89 -1247.99 rmoveto
          -99 -46 93 174 15 hvcurveto
          244 25 79.01 131 155 hhcurveto
          201 callsubr
          25 141 callsubr
          162 callsubr
          23 hvcurveto
          -41 -464.02 rlineto
          -135 -46 -70 -20 callsubr
          -47 hhcurveto
          endchar
        </CharString>
        <CharString name="atilde">
          -88 callgsubr
          153.01001 25 callsubr
          185.99 -84 callsubr
          -221 -56 callsubr
          345.99998 110 callgsubr
          -234.01 19 callgsubr
          hintmask 0000000000000000
          hintmask 0111010011000000
          207 callgsubr
          1339.99 rmoveto
          hintmask 0111100000100000
          104 callgsubr
          133 -1 callgsubr
          122 146 hvcurveto
          197 callsubr
          -62.02 -38.02 -20 callsubr
          -46 vhcurveto
          hintmask 0111010011000000
          -55 callgsubr
          hintmask 0111100101000000
          566 -1072.99 -105 callgsubr
          hintmask 1011101001000000
          -98 callsubr
          hintmask 0111100001000000
          -77 callsubr
          hintmask 0111100101000000
          -22 callgsubr
          hintmask 1011101001000000
          -102 callgsubr
        </CharString>
        <CharString name="b">
          28 -76 callsubr
          141 callgsubr
          -16 callsubr
          51 callsubr
          377.99998 22 callgsubr
          211 callgsubr
          vlineto
          hintmask 10111000
          14.01 115 rlineto
          202 callgsubr
          65 -43 callsubr
          -44 callsubr
          122.02 hhcurveto
          284 134 callsubr
          227 325 hvcurveto
          21 vlineto
          319.02 95 callgsubr
          229.99 -286 vhcurveto
          121 -570 rmoveto
          -180 -36 -128 183 callgsubr
          -94 -58 38 68.01 -31.01 vhcurveto
          421.99 vlineto
          67.02 31.01 57 38.99 93 hhcurveto
          159 -76 callgsubr
          -140 -165 hvcurveto
          endchar
        </CharString>
        <CharString name="b.ss06">
          46 -76 callsubr
          141 callgsubr
          -16 callsubr
          51 callsubr
          398.01 22 callgsubr
          261 vlineto
          hintmask 10111000
          19 121 rlineto
          -88 65 -71 callsubr
          -53 143 callgsubr
          hhcurveto
          284 157 234 315 hvcurveto
          21 vlineto
          328.99 -157 223 -286 vhcurveto
          141 -572.99 rmoveto
          -170 -56.02 -135 183 callgsubr
          -89 -59 36 60 -35 vhcurveto
          442.98 vlineto
          61 34 59 34 88 hhcurveto
          157 60 -131.99 -176 hvcurveto
          endchar
        </CharString>
        <CharString name="backslash">
          -258 1415.01999 -87 callgsubr
          -4.99 917.99 vstem
          -5 12 callgsubr
          606.98 -1580.99 rlineto
          311.01 hlineto
          -608.01 1580.99 rlineto
          endchar
        </CharString>
        <CharString name="bar">
          -605 1415.01999 -87 callgsubr
          -56 callsubr
          160 callgsubr
          vstem
          350.99 -270 rmoveto
          1725.99 -178 -1725.99 vlineto
          endchar
        </CharString>
        <CharString name="braceleft">
          171 callgsubr
          219.99 268.98 vstem
          488.98 105.98 rmoveto
          203 vlineto
          132.02 6 callsubr
          115 -126 63 vhcurveto
          126 63 -68 callsubr
          115.02 132 vvcurveto
          203 vlineto
          140 32 116 117 42 vhcurveto
          -58 166.99 rlineto
          -275 -77 71 callsubr
          -177.99 -210 vvcurveto
          -203 vlineto
          -124 -51 callsubr
          71 callgsubr
          -122.99 vhcurveto
          -54 vlineto
          -160.99 vlineto
          122.99 137 callsubr
          -79.02 -123 hvcurveto
          -203 vlineto
          -209.98 -19 callgsubr
          -179 275 -77 vhcurveto
          58 168 rlineto
          -117 42 -32 116 204 callsubr
          vvcurveto
          endchar
        </CharString>
        <CharString name="braceright">
          171 callgsubr
          -66 callsubr
          267.98 vstem
          453.98 928.99 rmoveto
          203 vlineto
          210 -85 160 callgsubr
          -275 77 vhcurveto
          -58 -166.99 rlineto
          117 -42 33 -116 -140 vvcurveto
          -203 vlineto
          -134 56 142 callsubr
          127 -62 vhcurveto
          -127 -62 -56 142 callsubr
          -134 vvcurveto
          -203 vlineto
          -139.98 -33 -116 -117 -42 vhcurveto
          58 -168 rlineto
          275 77 85 179 209.98 vvcurveto
          203 vlineto
          123 137 callsubr
          79.02 123 vhcurveto
          58 vlineto
          157 vlineto
          -123 -51 callsubr
          78.99 124 hvcurveto
          endchar
        </CharString>
        <CharString name="bracketleft">
          90 callgsubr
          116.98 303 vstem
          555.99 1466.98 rmoveto
          232 -439.01 -2041.97 439.01 230.99 -136 1578.99 vlineto
          endchar
        </CharString>
        <CharString name="bracketright">
          90 callgsubr
          150.99 -89 callgsubr
          13.99 1698.98 rmoveto
          -232 137 -1578.99 -137 -230.99 439.01 2041.97 vlineto
          endchar
        </CharString>
        <CharString name="brokenbar">
          -606 1415.01999 191 callsubr
          268 vstem
          393.99 698 rmoveto
          757.99 -268 -757.99 vlineto
          -968 vmoveto
          268 794.99 -268 hlineto
          endchar
        </CharString>
        <CharString name="bullet">
          -383 495.98 504.01 hstem
          201 callgsubr
          484 vstem
          201 callgsubr
          764.99 rmoveto
          -37 vlineto
          95 callgsubr
          95.01 109 callgsubr
          148 149 92 95.01 134 callsubr
          vhcurveto
          37 vlineto
          137 -92 161 callgsubr
          -151 -146 109 callgsubr
          -98.02 -137 vhcurveto
          endchar
        </CharString>
        <CharString name="c">
          -57 167 callsubr
          -69 callgsubr
          367.01 -43 callgsubr
          vstem
          732 378.98 rmoveto
          115 callgsubr
          -1 -69 -60 -103.02 hhcurveto
          -163.99 -30 35 callgsubr
          160 114 60 -82 184 callgsubr
          1 vhcurveto
          30 callgsubr
          -309 94 callgsubr
          -239 336 252 197 164 137 callgsubr
          1 vhcurveto
          endchar
        </CharString>
        <CharString name="c.ss06">
          -27 167 callsubr
          131 callgsubr
          393.02 -43 callgsubr
          vstem
          759.99 378.98 rmoveto
          115 callgsubr
          -4 175 callgsubr
          -60 -103 hhcurveto
          -163 -48 141 164 hvcurveto
          -4 callsubr
          vlineto
          160 49 145 160.02 115 65 -82 184 callgsubr
          4 vhcurveto
          -43 callgsubr
          hlineto
          266.02 -7.99 -186 161 -267.02 hhcurveto
          -333.99 -183 -239 -309 hvcurveto
          4 callsubr
          vlineto
          -309 183 -239 336 253 198 164 137 callgsubr
          7.99 vhcurveto
          endchar
        </CharString>
        <CharString name="ccedilla">
          -57 -468 174.01 20 callgsubr
          43 8 callgsubr
          43 824.98001 242.99 65 callsubr
          193.01 256 -82 -43 callgsubr
          hintmask 10111100
          558.98 222.99 rmoveto
          -163.99 -30 35 callgsubr
          160 vhcurveto
          hintmask 10111010
          114 60 -82 184 callgsubr
          1 hvcurveto
          30 callgsubr
          -270 -21 callsubr
          -216 256 -50.97 vhcurveto
          hintmask 11011100
          -28 -129 34 callgsubr
          115 -76 45 140 callgsubr
          13 hvcurveto
          8 43 199 39.97 143 148 1 200.99 rlinecurve
          -282.99 hlineto
          hintmask 10111100
          115 callgsubr
          -1 -69 -60 -103.02 hhcurveto
          endchar
        </CharString>
        <CharString name="cedilla">
          -571 -466 173.99 241.01999 58.98 hstem
          114 callgsubr
          256 vstem
          352.99 7.99 rmoveto
          -227 hlineto
          -31 -143.99 rlineto
          99 162 callsubr
          42 -16.02 -53 vvcurveto
          -57 -45 -23 -62.02 vhcurveto
          7 -174 rlineto
          234 122 97 145 115.02 -76 44.99 -73.99 13 hvcurveto
          endchar
        </CharString>
        <CharString name="cent">
          62 -245 467.98 -234.98 43 -42 43 826.99 458.99 hstemhm
          99.98 113 callgsubr
          100.98 200 67 159 callsubr
          hintmask 00000000
          hintmask 10011110
          595.99 222.99 rmoveto
          -164 159 callgsubr
          35 callgsubr
          161 114.01 59 -82 184 callgsubr
          21 callsubr
          vhcurveto
          283.02 hlineto
          -2 231.02 95 callgsubr
          151 -211 158 callsubr
          rrcurveto
          224 -200 -223 vlineto
          -268 -19 callsubr
          -134 -221 -277.02 vvcurveto
          4 callsubr
          vlineto
          hintmask 01011110
          -277.01 133 -221 269 -41.98 vhcurveto
          hintmask 10011110
          -233 200 vlineto
          hintmask 00111110
          234 vlineto
          hintmask 10011110
          202 -76 callgsubr
          146 142 callgsubr
          2 203 rrcurveto
          -283.02 hlineto
          115 callgsubr
          79 callgsubr
          140 callsubr
          -60 -103 hhcurveto
          endchar
        </CharString>
        <CharString name="circumflex">
          -104 1243.99 46 callsubr
          116.98 784.02 hintmask 00000000
          hintmask 01100000
          901 1256 rmoveto
          65 callgsubr
          hintmask 10100000
          16 callsubr
          235 vlineto
          hintmask 01100000
          155 140.99 156.02 17 callsubr
          hlineto
          endchar
        </CharString>
        <CharString name="colon">
          -537 131 callsubr
          490.99 320 hstem
          122.98 338 vstem
          291.98 1119.99 rmoveto
          -103 -66 158 callgsubr
          -91.02 66 -69 103 39 callsubr
          -51 callgsubr
          69 218 callgsubr
          185 callsubr
          -811 vmoveto
          -103 -66 122 callgsubr
          66 175 callsubr
          103 39 callsubr
          -51 callgsubr
          68.99 91 -71 callsubr
          185 callsubr
          endchar
        </CharString>
        <CharString name="comma">
          -611 -375.99 624.98 hstem
          -31 callgsubr
          249.99 vstem
          392.99 46 128 callgsubr
          -58 174 callsubr
          -47 -70 callgsubr
          vhcurveto
          -12 callsubr
          -80 rlineto
          116 99 112 callgsubr
          168 -12 callsubr
          vvcurveto
          endchar
        </CharString>
        <CharString name="copyright">
          482 -20 -69 callsubr
          176.98999 135 623.01001 135 175.98999 125 hstem
          86 122 224.98 -12 callsubr
          373.01 156.01 266.00002 -92 callgsubr
          321 491 rmoveto
          -156.02 hlineto
          -130 -93 callsubr
          -2 callsubr
          -118 -128 -66 103 149 vhcurveto
          120 vlineto
          147 66 104 128 118 62 -51 -128 vhcurveto
          156 hlineto
          209 143 callsubr
          105 -206 -215 -134 -158 -229 vhcurveto
          -118.99 vlineto
          -230 134 -157 215 206 129 104 210 vhcurveto
          endchar
        </CharString>
        <CharString name="crossbar">
          -140 649.99 -66 callsubr
          hstem
          204 callsubr
          708.01 vstem
          847.99 649.99 rmoveto
          186 -708.01 -186 vlineto
          endchar
        </CharString>
        <CharString name="currency">
          288 -20 190.99 872.98999 189.99 hstem
          6 callgsubr
          -66 callsubr
          818.99998 185.01 vstem
          1303 607.99 rmoveto
          137 -64 callgsubr
          124 -30 callgsubr
          101 vhcurveto
          147 150 -142 145 -144 -147.99 rlineto
          74 -98 -121.02 -59 callsubr
          143 callsubr
          hhcurveto
          -130 -120 8 callgsubr
          -50 callgsubr
          -98.02 hvcurveto
          163 callsubr
          145 -141 -144 144 -147 rlineto
          -68 -20 callgsubr
          -41 200 callsubr
          -138 vvcurveto
          -131.99 37 -121.02 64 -98.98 vhcurveto
          -136 -138.02 141 -143.99 129 131.99 rlineto
          -80 -11 callsubr
          143 callgsubr
          -45.99 135 hhcurveto
          135.99 126.02 47 81 99.99 hvcurveto
          131 205 callgsubr
          142 144.98 -139.02 141 rlineto
          134 callgsubr
          99 36 119.99 130 vvcurveto
          -594 -437 rmoveto
          -228 -182 191 246 246 182 189.99 228 226 124 callgsubr
          -189.99 -246 -246 208 callgsubr
          -191 -226 hvcurveto
          endchar
        </CharString>
        <CharString name="d">
          29 -76 callsubr
          141 callgsubr
          243.99 65 callsubr
          378.01 153 callgsubr
          742.99 1536 rmoveto
          -551.02 vlineto
          73.99 -65 28 callgsubr
          43 -107.99 hhcurveto
          -271 -152 149 callgsubr
          152 -233 268.98 118 -52 callsubr
          50.99 85.01 100 callgsubr
          vhcurveto
          hintmask 01111000
          15.01 -116 rlineto
          272 144 callsubr
          -50 134 170 hvcurveto
          21 vlineto
          175 53 134 145 87 59 -90 callgsubr
          -70 34 vhcurveto
          -418.02 vlineto
          -30 callgsubr
          -34 -59 -41 -89 hhcurveto
          endchar
        </CharString>
        <CharString name="d.ss06">
          51 48 callgsubr
          -223.99 192 callsubr
          hstemhm
          131 callgsubr
          398.01 153 callgsubr
          764.99 1536 rmoveto
          -550.02 vlineto
          -83 callsubr
          -64 71 callsubr
          43 -108.01 hhcurveto
          -271 -172 118 callsubr
          172 -235 269 121 -71 callsubr
          54 88 -68 callgsubr
          vhcurveto
          hintmask 01111000
          80 callsubr
          -122 rlineto
          262 144 callsubr
          -70 136 118 callgsubr
          -36 callgsubr
          144 83 -50 callsubr
          -34 -62 37 vhcurveto
          -439 vlineto
          -62 -37 -93 callsubr
          -37 28 callgsubr
          hhcurveto
          endchar
        </CharString>
        <CharString name="degree">
          -324 924.99 142 callgsubr
          252.01 149.99 hstem
          -21 callsubr
          142 callgsubr
          247.01 142 callgsubr
          vstem
          401 1475.99 rmoveto
          -150.02 -3 callgsubr
          200 callsubr
          -152.99 -152 -69 callsubr
          -121 150.02 70 callsubr
          122 121 152 152.99 -122 143 callgsubr
          -147.99 hvcurveto
          -402 vmoveto
          140 callsubr
          -58 53 71 -83 callsubr
          58 55 18 callgsubr
          68 53 -55 -90 callsubr
          -71 -53 -53 -68 hvcurveto
          endchar
        </CharString>
        <CharString name="dieresis">
          -154 1235.98 258 hstem
          94.99 159 callsubr
          211.98 20 callgsubr
          vstem
          114 callgsubr
          1495 rmoveto
          -81 -60 5 callsubr
          -62 callsubr
          60 -57 81 -38 callgsubr
          189 callgsubr
          hvcurveto
          496 -1 rmoveto
          -81 -61 -16 callgsubr
          61 -56 81 -39 callgsubr
          56.02 -81 hvcurveto
          endchar
        </CharString>
        <CharString name="divide">
          43 122 311.99 134 114 callgsubr
          128.99998 312.01 hstem
          409.98 339 vstem
          578.99 1245 rmoveto
          -102 -74 callgsubr
          -66 78 callgsubr
          -61 callsubr
          -68 callgsubr
          -65 102 127 callgsubr
          -68 callgsubr
          65 -52 callsubr
          -71 callsubr
          -74 callgsubr
          66 -102.99 hvcurveto
          515.99 -677 rmoveto
          114 callgsubr
          -1031.99 7 callsubr
          vlineto
          516 -134 rmoveto
          -102 -74 callgsubr
          -65 78 callgsubr
          -91.02 -68 callgsubr
          -64.99 102 127 callgsubr
          -68 callgsubr
          133 callsubr
          148 callgsubr
          65 -102.99 hvcurveto
          endchar
        </CharString>
        <CharString name="dollar">
          53 -216 435.99 -236.99 43 1209.98 451.01 -256.95999 -98 callgsubr
          -37.97002 -98 callgsubr
          hstemhm
          -30 callsubr
          -104 callgsubr
          -247.99 -104 callgsubr
          79.99998 159 -138.98999 7 callgsubr
          70 callgsubr
          -78 callgsubr
          hintmask 0100101011000000
          646.98 857.99 rmoveto
          hintmask 0110001011000000
          -153.99 62 -47 53 95.01 vvcurveto
          94 138 callgsubr
          74 115.02 104 71 -90 callsubr
          -157 vhcurveto
          301 hlineto
          hintmask 0101001011000000
          263.99 -149 167 -232 34 vhcurveto
          hintmask 0110001011000000
          216 183 callgsubr
          vlineto
          hintmask 1000101011000000
          -213 vlineto
          -241 -24 -161 -152.99 -227 vvcurveto
          -266.02 178 -99.98 262 184 callgsubr
          vhcurveto
          145 -45 callsubr
          54 -51 callsubr
          -110 vvcurveto
          -94 -59 -70.98 -119.99 vhcurveto
          hintmask 1000110011000000
          -107.01 -105 -33 callsubr
          185 hvcurveto
          -302 hlineto
          hintmask 0100110101000000
          -323.99 213 -130 223 -23.98 vhcurveto
          hintmask 1000101101000000
          -199 159 vlineto
          hintmask 0100101101000000
          199 vlineto
          -34 callgsubr
          -4 callsubr
          158 -31 callgsubr
          235 vvcurveto
          hintmask 0100101011000000
          263 -179 103 -258.01 105 vhcurveto
          endchar
        </CharString>
        <CharString name="dollar.smcp">
          -22 -236.99 441.98 -216.98999 43 -43 216.99 755.01 434.99 102 callsubr
          105 -32 callgsubr
          80.99998 -104 callgsubr
          -288.98 286 hintmask 0101011010000000
          108 callgsubr
          710.98 rmoveto
          59 callsubr
          vhcurveto
          hintmask 0101011100000000
          116 65 140 callsubr
          -75 hvcurveto
          302 hlineto
          204 -153.99 126 -229 28.02 vhcurveto
          220 -159.99 -216 vlineto
          -229 -20.01 -161 205 callgsubr
          -189 vvcurveto
          -213 132 174 callsubr
          297 -69 vhcurveto
          hintmask 0011101010000000
          117 callsubr
          -152 -70.99 49 120 vhcurveto
          -302 hlineto
          -250 207 -115 223 -11 callgsubr
          vhcurveto
          hintmask 1001011010000000
          -224.99 -32 callgsubr
          vlineto
          hintmask 0101011010000000
          224.99 vlineto
          232 21.99 148 120 195 vvcurveto
          145 callsubr
          endchar
        </CharString>
        <CharString name="dotlessi">
          -558 0 43 hstem
          -36 callgsubr
          303 vstem
          433.99 hmoveto
          58 callsubr
        </CharString>
        <CharString name="e">
          -81 callgsubr
          hstem
          74 callsubr
          vstem
          1059.98 570.98 -106 callgsubr
        </CharString>
        <CharString name="e.ss07">
          -81 callgsubr
          hstem
          69.98 308.02 385.98 193 callsubr
          178 callgsubr
          rmoveto
          318.02 -169.99 179 callsubr
          -311 -320 -189 -235 -320 vhcurveto
          125 callsubr
          vlineto
          -297 213 -230.99 344 165 callgsubr
          134 51.99 50 75 vhcurveto
          6 callsubr
          211 rlineto
          -40 -50 callgsubr
          -116 -30 -98 hhcurveto
          -180 -93 87 133 -11 callgsubr
          hvcurveto
          682.99 hlineto
          -296 202.02 rmoveto
          -385.99 hlineto
          -69 callsubr
          18.99 61 89 121 hhcurveto
          131.99 53 -76 -112 hvcurveto
          endchar
        </CharString>
        <CharString name="eacute">
          -81 callgsubr
          136 callsubr
          -53 callsubr
          74 callsubr
          vstem
          914.98 1536.98 184 callsubr
          -195.99 -59 callgsubr
          244 hlineto
          423 -655.01 -106 callgsubr
        </CharString>
        <CharString name="ecircumflex">
          -81 callgsubr
          143.01 -75 callsubr
          291.98 hstemhm
          74 callsubr
          hintmask 00000000
          hintmask 11101110
          541.98 1385.98 rmoveto
          156.02 17 callsubr
          11.99 hlineto
          65 callgsubr
          hintmask 11110110
          38 callsubr
          -16 235 vlineto
          672.99 -674.02 -106 callgsubr
        </CharString>
        <CharString name="edieresis">
          -81 callgsubr
          135.01 258 hstemhm
          69.98 309 -227 159 callsubr
          4 callgsubr
          20 callgsubr
          -166.99 295.99 hintmask 00000000
          hintmask 11110110
          292.98 1236.99 rmoveto
          -38 callgsubr
          -91 callsubr
          hintmask 11111001
          211 callgsubr
          -666.01 -106 callgsubr
        </CharString>
        <CharString name="egrave">
          -81 callgsubr
          136 callsubr
          -53 callsubr
          74 callsubr
          vstem
          709 1225.99 -54 callgsubr
          144 callgsubr
          -59 callgsubr
          598 -655.01 -106 callgsubr
        </CharString>
        <CharString name="eight">
          -101 callgsubr
        </CharString>
        <CharString name="eight.frac">
          198 callgsubr
          160.01001 169 145 -85 callsubr
          1070.98 74 callgsubr
          59 75 vvcurveto
          148 -121 77 -173 -169 -123 -77 -148 -75 42 -59 70 -35 vhcurveto
          hintmask 11110010
          -80 -36.99 -18 callsubr
          -64 -87 vvcurveto
          -155.02 16 callgsubr
          155.02 87 -2 callsubr
          64 -13 callgsubr
          158 callsubr
          vhcurveto
          hintmask 11101100
          -184 225 44 callsubr
          -474 199 callgsubr
          25.01 58 60 -59 callsubr
          -25.01 -53 -51 -41 -31 -54 callsubr
          hvcurveto
          endchar
        </CharString>
        <CharString name="eight.smcp">
          -58 -75 callgsubr
          245 -103 callgsubr
          223.01 68 callgsubr
          75.98 303 -274.98 -104 callgsubr
          255 -104 callgsubr
          -274.00002 -104 callgsubr
          hintmask 11110010
          798.99 599.98 rmoveto
          hintmask 11101100
          39 callsubr
          53 62 86 112 vvcurveto
          217 -178 113.99 -253 -247.99 -180 -113.99 -217 -112 62 -86 127 callgsubr
          -52 vhcurveto
          hintmask 11110010
          -117.99 -54 175 callgsubr
          78 callsubr
          -130 vvcurveto
          -227 198 -110.98 260.02 263.98 193 110.98 227 130 -74 94.99 -118 53 vhcurveto
          hintmask 11101100
          -267 339 rmoveto
          86 43 -39 -69 140 callsubr
          -41 -47 -86 -83 -45 47 18 callgsubr
          68 45 40 81 hvcurveto
          hintmask 11110010
          2 -712.01 rmoveto
          -92 -63.02 48 77 81 63.02 39 -30 callsubr
          93 64 -39 -81 -77 -2 callgsubr
          -48 -93 hvcurveto
          endchar
        </CharString>
        <CharString name="eight.sup">
          84 callgsubr
          160.00002 169 145 -85 callsubr
          406 rmoveto
          hintmask 11101100
          69.02 36 40.98 58 76 32 callgsubr
          175 callgsubr
          42 177 callgsubr
          69 -35 vhcurveto
          hintmask 11110010
          71 callgsubr
          -37 -18 callsubr
          -64 -87 vvcurveto
          107 callsubr
          16 callgsubr
          -12 callsubr
          87 -2 callsubr
          64 -13 callgsubr
          36 vhcurveto
          hintmask 11101100
          -184 226 44 callsubr
          -474.01 199 callgsubr
          25 58 60 -59 callsubr
          -25 -53 -51 -41 -31 -54 callsubr
          hvcurveto
          endchar
        </CharString>
        <CharString name="eight.tnum">
          -101 callgsubr
        </CharString>
        <CharString name="ellipsis">
          409 131 callsubr
          hstem
          131.99 339 139 338 132 338 vstem
          302 308.98 rmoveto
          -103.02 -30 callgsubr
          122 callgsubr
          -51 callgsubr
          175 callsubr
          135 callgsubr
          -42 callgsubr
          477 hmoveto
          -103.02 113 callsubr
          122 callgsubr
          100 callgsubr
          175 callsubr
          135 callgsubr
          -42 callgsubr
          470 hmoveto
          -103 -66 122 callgsubr
          66 175 callsubr
          103 -42 callgsubr
          endchar
        </CharString>
        <CharString name="emdash">
          432 108 callgsubr
          247 hstem
          127 callgsubr
          1387.99 vstem
          1490.98 108 callgsubr
          rmoveto
          247 -1387.99 -247 vlineto
          endchar
        </CharString>
        <CharString name="endash">
          162 108 callgsubr
          247 hstem
          149.99 1040.99 vstem
          1190.99 108 callgsubr
          rmoveto
          247 -1041 -247 vlineto
          endchar
        </CharString>
        <CharString name="equal">
          55 -104 callgsubr
          244.98 190.02 245 hstem
          201 callgsubr
          902 vstem
          1036.98 736.99 rmoveto
          245 -902 -245 vlineto
          902 -435 rmoveto
          244.98 -902 -244.98 vlineto
          endchar
        </CharString>
        <CharString name="eth">
          51 -52 callgsubr
          514 227 hstem
          78.99 -104 callgsubr
          427.01 303 vstem
          854 1305.99 rmoveto
          135 85 -77 116 -169 -105.98 -118 86 -141 60 -157 -21 callgsubr
          rlinecurve
          78 callsubr
          -231 -30 callsubr
          -23 88 -35 80 -49 rlinecurve
          -146.99 -93 138 callsubr
          -116 187 118 71 -68 58 203 callsubr
          35 -104 rlinecurve
          45 -74 callgsubr
          -82 26.01 -91 hhcurveto
          -287.99 -165 -198 -298 -272 204 -216 303 302 223 245 357.99 hvcurveto
          70 vlineto
          267 -96.01 223 -160.99 163 vhcurveto
          -46 -756 rmoveto
          -187 140 callgsubr
          -140 -144 -132 -77 108.01 134 callsubr
          166 73 103 145.02 104 69 -35 -42 36 vhcurveto
          -5 vlineto
          endchar
        </CharString>
        <CharString name="exclam">
          -565 -17 81 callsubr
          1114.02998 -98 callgsubr
          hstemhm
          207 callsubr
          336.99 -311.00002 285.02 hintmask 11010000
          412 453 rmoveto
          36 1002.99 rlineto
          -321 hlineto
          35.98 -1002.99 rlineto
          hintmask 11100000
          136 callsubr
          -152 rmoveto
          -20 callgsubr
          206 callgsubr
          -69 -61 callsubr
          -70 callgsubr
          -34 callsubr
          175 callsubr
          -37 callsubr
          39 callsubr
          -51 callgsubr
          68.99 -30 callsubr
          -52 callsubr
          185 callsubr
          endchar
        </CharString>
        <CharString name="exclamdown">
          -537 783.99 81 callsubr
          hstemhm
          127 336.99 -311 284.99 hintmask 00000000
          hintmask 11000000
          296 783.99 rmoveto
          -37 callsubr
          66 69 -30 callsubr
          -52 callsubr
          -66 69 -20 callgsubr
          69 callsubr
          -30 callgsubr
          -69 -61 callsubr
          -70 callgsubr
          -51 callgsubr
          -69 39 callsubr
          hvcurveto
          hintmask 10100000
          200 callsubr
          -151 rmoveto
          -36 -1002.99 rlineto
          321 hlineto
          -36 1002.99 rlineto
          endchar
        </CharString>
        <CharString name="f">
          -388 -74 callsubr
          vstem
          647.99 1312.99 rmoveto
          35 28 -3 -6 24 hvcurveto
          -79 callgsubr
          214 69 callgsubr
          -214 92 vlineto
          -43 callsubr
          58 50 103 vhcurveto
          endchar
        </CharString>
        <CharString name="f_f">
          348 -74 callsubr
          434.99998 -89 callgsubr
          185 1174 rmoveto
          -29 callgsubr
          214 69 callgsubr
          -214 92 vlineto
          -43 callsubr
          58 50 103 35 28 -3 -6 24 vhcurveto
          2 233 rlineto
          12 -47 -44 callsubr
          8.01 -54 hhcurveto
          -246 107 callsubr
          38 callgsubr
          1199.99 139 rmoveto
          35 28.02 -3 -6 24 hvcurveto
          21 callsubr
          233 rlineto
          12 -47 -44 callsubr
          8.01 -54 hhcurveto
          -246 -155 38 callgsubr
          -92 -159.99 -220.02 -32 callgsubr
          24 callsubr
          214 69 callgsubr
          -214 92 vlineto
          -43 callsubr
          58 50 103 vhcurveto
          endchar
        </CharString>
        <CharString name="f_f_i">
          797 0 43 818.98 220.01 4 callgsubr
          263 -243.98999 -16 callsubr
          184.99 -104 callgsubr
          352.99998 303 352.01001 -4 callgsubr
          hintmask 11101110
          1142.99 1120.99 rmoveto
          6 callgsubr
          68 60 131 120 79.01 -23 -22 74 vhcurveto
          43 250 rlineto
          34 -115.02 -104 24 -116 hhcurveto
          -304.99 -178 -153 -283 hvcurveto
          -39 -139 vlineto
          -214 hlineto
          hintmask 11011110
          92 vlineto
          -43 callsubr
          58 50 103 35 28 -3 -6 24 vhcurveto
          -79 callgsubr
          193 vlineto
          -32 callgsubr
          -861.98 303 861.98 212 69 callgsubr
          -212 hlineto
          352.01 hmoveto
          -1082 -4 callgsubr
          1082 vlineto
          endchar
        </CharString>
        <CharString name="f_f_l">
          797 -74 callsubr
          352.99998 303 352.01001 -4 callgsubr
          vstem
          1295.99 1556.99 rmoveto
          -289.01 -167 -141 -258.99 hvcurveto
          -75 -139 vlineto
          -214 92 hlineto
          -43 callsubr
          58 50 103 35 28 -3 -6 24 vhcurveto
          -79 callgsubr
          193 vlineto
          -32 callgsubr
          -861.98 303 861.98 214 69 callgsubr
          -214 75 hlineto
          -11 callsubr
          69 55 127 49 53 -4 -5.02 54 vhcurveto
          -1303.98 -4 callgsubr
          1529 vlineto
          163 callgsubr
          163 callsubr
          -240 15.01 -120 hhcurveto
          endchar
        </CharString>
        <CharString name="f_l">
          142 -74 callsubr
          352.99998 303 vstem
          640.98 1556.99 rmoveto
          -289 -166.99 -141 -258.99 hvcurveto
          -75 -60 callsubr
          214 69 callgsubr
          -214 75 vlineto
          -11 callsubr
          70 55 126 50 52 -4 -5.02 -68 callsubr
          vhcurveto
          -1303.98 303 1529 vlineto
          163 callgsubr
          -142 213 callgsubr
          15.01 -120.02 hhcurveto
          endchar
        </CharString>
        <CharString name="fi">
          136 0 43 818.98 220.01 4 callgsubr
          263 hstem
          210 callsubr
          -104 callgsubr
          353.01 -89 callgsubr
          482 1120.99 rmoveto
          6 callgsubr
          69 60 -36 callgsubr
          120.02 78.99 -23 -22 74 vhcurveto
          43 250 rlineto
          34 -116 -104 24 -115 hhcurveto
          -305 -178 -153 -283 hvcurveto
          -39 -60 callsubr
          4 callgsubr
          69 callgsubr
          -211.99 vlineto
          353 hmoveto
          -1082 302 1082 vlineto
          endchar
        </CharString>
        <CharString name="five">
          53 -52 callgsubr
          510.98999 224 250.01001 124 callsubr
          hstem
          790.99 -89 callgsubr
          133.98 715 rmoveto
          240 -59 rlineto
          158 callsubr
          36 50 41 176 callsubr
          hhcurveto
          156 71 -98 -149 -146 -52.02 -118 77 callgsubr
          -113.01 -90 callsubr
          71 115 -11 hvcurveto
          -300.02 hlineto
          -269 5.02 239.99 -159.99 253 hhcurveto
          337 159 233 255 310 -163 180 -283.02 115 callgsubr
          -83 -34 -21.02 -37 hvcurveto
          35 305.01 rlineto
          578 124 callsubr
          -825 hlineto
          endchar
        </CharString>
        <CharString name="five.frac">
          198 callgsubr
          219.01001 -31 callgsubr
          103.99998 165 hstem
          153 callsubr
          vstem
          -19 callgsubr
          1044.99 rmoveto
          167 -41 rlineto
          12 16 30 25 54 callsubr
          -43 -67.02 63 callgsubr
          50.02 -1 hvcurveto
          -211 hlineto
          -145 1 -18 callgsubr
          -91.02 188 callsubr
          138.02 204 callsubr
          162.02 109 callgsubr
          -71 callsubr
          -176 -45 callsubr
          -56 -20 162 callsubr
          1 callgsubr
        </CharString>
        <CharString name="five.smcp">
          -58 -75 callgsubr
          -242.97 346.99 228.98 207 160 237.99 hstemhm
          686.98 113 callgsubr
          hintmask 10111000
          99.98 564 rmoveto
          240 -59 rlineto
          18.99 27 43 36 99 hhcurveto
          119.01 114 callsubr
          -65 -20 callgsubr
          -88 -33 -78.01 -121 hvcurveto
          hintmask 01111000
          -93 -61 26.01 70 callgsubr
          -2.99 hvcurveto
          -303 hlineto
          hintmask 10111000
          -215 3.99 223 -131.99 233 hhcurveto
          310.99 126 callgsubr
          77 callsubr
          179 callsubr
          239 -139 136 -260.02 -82.99 -82 -29 -11 -28.02 hvcurveto
          30 180 callsubr
          rlineto
          496 238 -741.99 hlineto
          endchar
        </CharString>
        <CharString name="five.sup">
          84 callgsubr
          -168.98 114 callgsubr
          151.99 -31 callgsubr
          103.99998 165 hstemhm
          153 callsubr
          hintmask 10111000
          -19 callgsubr
          380.99 rmoveto
          167 -41 rlineto
          12 16 30 25.01 54 callsubr
          -43 -30 callgsubr
          5 callsubr
          -20.01 -52 -81 hvcurveto
          hintmask 01111000
          -93 callsubr
          -40 17 50 -1 hvcurveto
          -211 hlineto
          hintmask 10111000
          -145 1 -18 callgsubr
          78 callgsubr
          188 callsubr
          137.99 140 162 109 callgsubr
          91 -176 -45 callsubr
          -56 212 callsubr
          -7 1 callgsubr
        </CharString>
        <CharString name="five.tnum">
          6 endchar
        </CharString>
        <CharString name="four">
          53 0 43 269.99 -102 callsubr
          859.03998 -87 callgsubr
          659.98 -89 callgsubr
          1122 555.99 rmoveto
          -160 899.99 -65 hlineto
          -239 hlineto
          -600.99 -951.99 14.99 -191 rlineto
          588 -313 302 313 160 hlineto
          -769 243 rmoveto
          287.01 456 80 callsubr
          35 rlineto
          -491 vlineto
          endchar
        </CharString>
        <CharString name="four.frac">
          822.98 171 167 callgsubr
          994 64 callsubr
          -355 -491 13 -139 rlineto
          342 -159 211 159 -19 callgsubr
          hlineto
          -450.99 171 50 callsubr
        </CharString>
        <CharString name="four.smcp">
          -58 0 43 192.99 245 hstem
          578.99 -89 callgsubr
          1013.99 480.99 rmoveto
          -133 683.99 -63 hlineto
          -239 -1 hlineto
          -526.01 -728.99 18 -199 rlineto
          508.01 7 callsubr
          302 114 callgsubr
          133 hlineto
          -673 245 rmoveto
          218.99 281.99 19.01 29 rlineto
          -310.99 vlineto
          endchar
        </CharString>
        <CharString name="four.sup">
          0 97 callsubr
          -171 171 hstemhm
          155 callsubr
          hintmask 10100000
          178 callsubr
          97 callsubr
          64 callsubr
          hintmask 01100000
          -355 -491.01 13 -139 rlineto
          342 hlineto
          hintmask 10100000
          183 callgsubr
          211 vlineto
          hintmask 01100000
          7 callgsubr
          -19 callgsubr
          vlineto
          hintmask 10100000
          -450.99 171 50 callsubr
        </CharString>
        <CharString name="four.tnum">
          66 endchar
        </CharString>
        <CharString name="fraction">
          -214 176 callgsubr
          1214.99 hstem
          201 callsubr
          856 vstem
          19 callgsubr
          176 callgsubr
          rmoveto
          711 1138 -145 77 -711 -1138 rlineto
          endchar
        </CharString>
        <CharString name="g">
          47 23 callsubr
          100 callgsubr
          -78 callgsubr
          395.01 -4 callgsubr
          vstem
          791 1082 rmoveto
          -11.02 -100 rlineto
          76 -62 -87 -67 callgsubr
          -3 callgsubr
          hhcurveto
          -273.02 -167 149 callgsubr
          168 -233 270.01 111 83.99 42 71 63.02 vhcurveto
          -54 vlineto
          -146.98 -87.02 28 callgsubr
          -151 -106.99 -88 47 70 -64 vhcurveto
          -131 -185 rlineto
          -112 91.01 176 -54 134.99 hhcurveto
          315 214 167 297.98 hvcurveto
          1043 vlineto
          -484.99 173 callgsubr
          -74 callgsubr
          134 170 hvcurveto
          21 vlineto
          175 71 134 144 87.02 58 -32.99 -59 35 vhcurveto
          -449 vlineto
          -58 -35 -58 -35 -89 hhcurveto
          endchar
        </CharString>
        <CharString name="g.alt">
          -42 -438 211 callsubr
          217 211 callsubr
          111.01 227 305.98999 227 -174 154 hstemhm
          -8.99 282.97 -228.98999 299.99 -202.99 179 callgsubr
          341.01 299.99 -244.00002 300.01 hintmask 0000000000000000
          hintmask 1110100101000000
          668 230.99 rmoveto
          -186 hlineto
          -72.01 -55 12 -50 callsubr
          23 9.02 17.02 13 13.99 hvcurveto
          -8.99 45 48 -6 52 hhcurveto
          hintmask 1110101010000000
          286.99 187 164 179 callsubr
          hvcurveto
          22 vlineto
          -32 callsubr
          -11 callgsubr
          100 callgsubr
          -39 55 vhcurveto
          119.99 hlineto
          -2 154 rlineto
          -361.99 hlineto
          163 callgsubr
          -52 -58.02 7 -62 hhcurveto
          -286 -188.99 -148.99 -219.02 hvcurveto
          -22 vlineto
          -134 79 -115 134 -65 vhcurveto
          hintmask 1110100110000000
          -93 callsubr
          -41 -55 -59 -88 vvcurveto
          -52.99 17 -41 28 -31 vhcurveto
          hintmask 1110110001000000
          -105 -45 -90.97 -82 -120 vvcurveto
          -147 175.98 -129 327 355 203 198 168 vhcurveto
          hintmask 1110100101000000
          192 -141 111 -243 vhcurveto
          hintmask 1111001010000000
          -323.01 502.99 rmoveto
          139 callsubr
          66 -92 callsubr
          109 110 66 -93 callsubr
          -12 callgsubr
          vhcurveto
          -22 vlineto
          -76 -64 -30 callgsubr
          -110 -112 -65 -51 callgsubr
          76 vhcurveto
          hintmask 1110110001000000
          149 -923.99 rmoveto
          -150.02 -70 -33 callgsubr
          100 callgsubr
          204 callgsubr
          25 158 callsubr
          34 19.98 hvcurveto
          -6 29 32 79 callgsubr
          -21 callgsubr
          hhcurveto
          193 hlineto
          103 30 -48 -46 -57 -76 -66 -181.99 hvcurveto
          endchar
        </CharString>
        <CharString name="g.ss06">
          50 23 callsubr
          131 callgsubr
          398.01 -89 callgsubr
          803.98 1082 rmoveto
          -16 -106 rlineto
          80 -2 callgsubr
          -89.01 46 -129 hhcurveto
          -272 -171 57 callsubr
          171 7 callsubr
          270 110.99 85.01 43 8 callsubr
          63 vhcurveto
          -12 vlineto
          -183.97 -83 -61 callsubr
          -180 -94 -68 21 31 -75 vhcurveto
          -44 -216 rlineto
          -52 97 124 -18 94.99 hhcurveto
          97 callsubr
          200 182 325.98 hvcurveto
          1000.02 vlineto
          -484 173 callgsubr
          -70 137 170 154 callsubr
          175.99 -32 callsubr
          130 145 86 59 -20 callsubr
          -59 35 vhcurveto
          -449 vlineto
          -59 -35 -59 -35 -88 hhcurveto
          endchar
        </CharString>
        <CharString name="g.ss07">
          47 23 callsubr
          -69 callgsubr
          378.01 -89 callgsubr
          781.99 1082 rmoveto
          -16 -106 rlineto
          80 -2 callgsubr
          -88 46 -130 hhcurveto
          -272 -151 57 callsubr
          151 7 callsubr
          269.98 112 112 callgsubr
          43 8 callsubr
          63 vhcurveto
          -14.99 vlineto
          208 callgsubr
          -83 -88 -180 -92 -65 20.01 28 -73 vhcurveto
          -44 -216 rlineto
          -49 95 121 -17 93 hhcurveto
          97 callsubr
          200 181 323.99 hvcurveto
          1003 vlineto
          -484 173 callgsubr
          -50 137 170 154 callsubr
          175.99 94 callsubr
          130 126 callgsubr
          -71 callsubr
          57 -35 -65 32 vhcurveto
          -430 vlineto
          -65 -32 -57 -39 -93 hhcurveto
          endchar
        </CharString>
        <CharString name="germandbls">
          177 -52 callgsubr
          -222.99 33.99 1284 98 callsubr
          hstemhm
          201 callgsubr
          -104 callgsubr
          204.01 -104 callgsubr
          -195.99 300.01 -110.99998 -78 callgsubr
          hintmask 00000000
          hintmask 01110100
          436.98 hmoveto
          1095.99 vlineto
          167 61 55 96.99 88 64 -59 -87 vhcurveto
          hintmask 10111000
          107 callsubr
          -106 -18 -181 vvcurveto
          hintmask 10110010
          -257 295.02 -45 -160 vvcurveto
          -82.99 -58 -50 -99 -96.01 21 callgsubr
          27.01 23 -42 vhcurveto
          hintmask 01110000
          -56.02 -239 rlineto
          hintmask 10110010
          -32 55 207 callsubr
          -21.99 103.01 hhcurveto
          292.99 160 141 239 hvcurveto
          hintmask 10111000
          250 -294.01 94 128 vvcurveto
          hintmask 01110100
          -32 callgsubr
          176 callsubr
          -1 195 vvcurveto
          127 callsubr
          -193 127 -234 -299.01 -186 -156 -303 vhcurveto
          -1100.98 vlineto
          endchar
        </CharString>
        <CharString name="grave">
          -443 1224.99 311 hstem
          52.98 524 vstem
          576.98 -39 callsubr
          3 callsubr
          -27 callgsubr
          endchar
        </CharString>
        <CharString name="gravecomb">
          -1125 1224.99 311 hstem
          -899.99 524 vstem
          -375.99 -39 callsubr
          144 callgsubr
          -27 callgsubr
          endchar
        </CharString>
        <CharString name="greater">
          -69 128.98 974 hstem
          117.99 873 vstem
          117.99 1102.99 rmoveto
          -289 vlineto
          571 182 callgsubr
          -571 -199.99 rlineto
          -289.02 vlineto
          873 364.01 rlineto
          36 vlineto
          210.99 vlineto
          endchar
        </CharString>
        <CharString name="guillemotleft">
          -94 122 798.98 hstem
          -83 callsubr
          863 vstem
          542.99 48 callsubr
          400 rlineto
          631.01 399 rmoveto
          -191.02 hlineto
          -279 -390 rlineto
          -6 vlineto
          -12.98 vlineto
          279 -390 rlineto
          191.02 hlineto
          -237.02 400 rlineto
          endchar
        </CharString>
        <CharString name="guillemotright">
          -94 121 798.98 hstem
          82.98 869 vstem
          552.98 511 rmoveto
          18.99 vlineto
          -278 390 rlineto
          -192 hlineto
          238 -398.99 -238 -400 rlineto
          192 hlineto
          399.02 798.99 rmoveto
          -192 168 callsubr
          192 hlineto
          278 390 rlineto
          6 vlineto
          163 callgsubr
          vlineto
          endchar
        </CharString>
        <CharString name="guilsinglleft">
          -483 122 798.98 hstem
          107.99 469.99 vstem
          178 callgsubr
          48 callsubr
          399 rlineto
          endchar
        </CharString>
        <CharString name="guilsinglright">
          -506 121 798.98 hstem
          202 callsubr
          469.99 vstem
          211 callgsubr
          919.98 rmoveto
          -191 168 callsubr
          191 hlineto
          279 390 rlineto
          6 vlineto
          163 callgsubr
          vlineto
          endchar
        </CharString>
        <CharString name="h">
          24 0 192 callsubr
          hstem
          99.98 -104 callgsubr
          342.02 -89 callgsubr
          686.98 89 callsubr
          -116.99 -97.01 -44 callsubr
          174 callsubr
          -71 hvcurveto
          570.02 -302 -1536 302 769.99 vlineto
          55 33.02 -68 callsubr
          32.99 86.02 hhcurveto
          106.99 61 -41 95 callgsubr
          hvcurveto
          -680 302 677.99 vlineto
          309 -145 115 -214.02 vhcurveto
          endchar
        </CharString>
        <CharString name="hyphen">
          -297 32 callsubr
        </CharString>
        <CharString name="i">
          -576 0 43 1163.98 310 hstemhm
          104.98 337.02 -319.02 303 hintmask 00000000
          hintmask 11100000
          273 1516.99 rmoveto
          -101 -74 callgsubr
          -65 -61 callsubr
          -70 callgsubr
          -68 callgsubr
          -65 101 215 callsubr
          65 -30 callsubr
          -52 callsubr
          -74 callgsubr
          65 -20 callgsubr
          hvcurveto
          hintmask 11010000
          152.99 -1516.99 rmoveto
          58 callsubr
        </CharString>
        <CharString name="iacute">
          117 callgsubr
          331 1518 72 callgsubr
          -223 -1518 rmoveto
          58 callsubr
        </CharString>
        <CharString name="icircumflex">
          -558 0 43 1182.99 46 callsubr
          -36 callgsubr
          303 hintmask 00000000
          hintmask 10110000
          677.99 1238 rmoveto
          -37 callgsubr
          hintmask 11010000
          16 callsubr
          234.98 vlineto
          hintmask 10110000
          155.02 141 92 callsubr
          hlineto
          hintmask 11010000
          -244 -1225.99 rmoveto
          58 callsubr
        </CharString>
        <CharString name="idieresis">
          -558 0 43 1174.98 258 -258 259.01 hstemhm
          -106 -43 callgsubr
          -46 303 -45 196 callsubr
          hintmask 10110000
          34.97 1477 rmoveto
          -80.97 -60 5 callsubr
          -90 callsubr
          hvcurveto
          hintmask 11010000
          -72.01 60 -57 80.97 81.02 195 callgsubr
          vhcurveto
          hintmask 10110000
          -47 callsubr
          -33 callgsubr
          -81.02 vhcurveto
          hintmask 11000100
          496 -1 rmoveto
          -81 194 callgsubr
          -73 197 callgsubr
          81 61 56 73 -28 callsubr
          56 -81 hvcurveto
          hintmask 11001000
          -96.99 -1475.99 rmoveto
          58 callsubr
        </CharString>
        <CharString name="igrave">
          117 callgsubr
          450.99 1206.99 rmoveto
          -198 311.01 rlineto
          -325.98 hlineto
          276.97 -27 callgsubr
          230 -1206.99 rmoveto
          58 callsubr
        </CharString>
        <CharString name="j">
          -587 -437 247 1396.98 310 hstemhm
          -37 callsubr
          336.99 -313.99 303 hintmask 00000000
          hintmask 11100000
          211 callgsubr
          1516.99 rmoveto
          69 callsubr
          -30 callgsubr
          -65 -61 callsubr
          -70 callgsubr
          -51 callgsubr
          -65 39 callsubr
          101 -51 callgsubr
          65 -30 callsubr
          -52 callsubr
          -30 callgsubr
          65 -101 hvcurveto
          hintmask 11010000
          157 -435 rmoveto
          -303 -1132.99 hlineto
          -96.01 -47 -19 callsubr
          -86.98 -31 -29 2.99 6 -32 vhcurveto
          -239 vlineto
          -13 137 callsubr
          46 -4 50.97 hhcurveto
          240 141 136 250 hvcurveto
          endchar
        </CharString>
        <CharString name="k">
          -24 0 43 hstem
          51 callsubr
          vstem
          777.99 hmoveto
          345.99 hlineto
          -419 633 388.02 449 rlineto
          -362 hlineto
          -271.01 -321 -50 -65 rlineto
          840.99 -302 -1536.98 302 325 vlineto
          101.01 -11 callsubr
          rlineto
          endchar
        </CharString>
        <CharString name="k.alt">
          -23 0 43 397.99 239.98 hstem
          176 callgsubr
          -89 callgsubr
          762 hmoveto
          347 hlineto
          -372 587.98 336 494.02 rlineto
          -349 hlineto
          -239 -401.02 rlineto
          -74 855.02 -302 -1536 302 441 -19 callgsubr
          hlineto
          endchar
        </CharString>
        <CharString name="k.alt2">
          -31 0 43 hstem
          176 callgsubr
          -89 callgsubr
          1103.99 hmoveto
          -434.01 178 callgsubr
          391 504.01 rlineto
          -351.99 hlineto
          -298 -401.02 rlineto
          879 -302 -1559.98 302 468.99 vlineto
          336 -468.99 rlineto
          endchar
        </CharString>
        <CharString name="l">
          -576 0 43 hstem
          122.98 303 vstem
          425.98 hmoveto
          1536 -303 -1536 vlineto
          endchar
        </CharString>
        <CharString name="less">
          -82 129.99 974 hstem
          52.98 867 vstem
          919.98 1103.99 rmoveto
          -867 -363 rlineto
          -36.99 vlineto
          -211 vlineto
          867 -363 rlineto
          291 vlineto
          -564 194 564 199 rlineto
          endchar
        </CharString>
        <CharString name="logicalnot">
          3 633.99 -3 callsubr
          hstem
          760.99 180 callsubr
          vstem
          -21 callsubr
          804.99 rmoveto
          -170.99 635 -260.01 180 callsubr
          260.01 vlineto
          -3 callsubr
          vlineto
          endchar
        </CharString>
        <CharString name="longs">
          -591 0 43 1270.99 105 callsubr
          111.98 113 callgsubr
          vstem
          111.98 hmoveto
          113 callgsubr
          1174 hlineto
          -43 callsubr
          51 137 callsubr
          93 -59 callsubr
          25 141 callsubr
          -6 30 vhcurveto
          24 232.02 rlineto
          11.98 -55 -52 205 callsubr
          6 callsubr
          hhcurveto
          -254.02 -151 38 callgsubr
          endchar
        </CharString>
        <CharString name="longst">
          207 -20 124 callsubr
          -227.99 43 818.98 220.01 232.00002 68 callgsubr
          184.99 -104 callgsubr
          310.99998 26 callgsubr
          hintmask 10111100
          1210.98 164 callgsubr
          rmoveto
          125 callgsubr
          -34.02 126 callsubr
          -43 callsubr
          hvcurveto
          523 183 69 callgsubr
          -183 161 vlineto
          136 callgsubr
          vlineto
          48 -132 -180 59 -197 hhcurveto
          -255 -151 38 callgsubr
          -92 -160 -220.02 160 vlineto
          hintmask 01111100
          -861.98 302 1174 vlineto
          -43 callsubr
          51 137 callsubr
          92 76 65 -15.02 -12 201 callsubr
          vhcurveto
          -204.99 -152 -220.02 152 -558 vlineto
          hintmask 10111100
          -232 122 -91.99 164 callsubr
          18 callsubr
          62 callgsubr
          51 vhcurveto
          227 vlineto
          188 callgsubr
        </CharString>
        <CharString name="m">
          646 0 192 callsubr
          hstem
          51 callsubr
          323.99998 -104 callgsubr
          325.02 -89 callgsubr
          1317.99 89 callsubr
          -145 -108.01 -62 69 callsubr
          -70 hvcurveto
          114.02 -52.98 69 callsubr
          76 callsubr
          -129 hhcurveto
          205 callgsubr
          -104.02 -52 -89 -70.99 hvcurveto
          -10.02 121.02 rlineto
          -282.99 -1082 302 759.99 hlineto
          -92 callsubr
          34 56 37 79 hhcurveto
          96.99 58 -32.99 -141 hvcurveto
          -683.99 302 721.98 vlineto
          8 0 8.01 -0.99 6.99 vhcurveto
          69.02 -21 callgsubr
          -33 callsubr
          -67 callgsubr
          112 callgsubr
          hhcurveto
          95.01 59 -31 -140 hvcurveto
          -686.98 302 686 vlineto
          307 -137 109 -208 vhcurveto
          endchar
        </CharString>
        <CharString name="macron">
          -89 1286.98 169 hstem
          19 callgsubr
          690.99 vstem
          862.99 1286.98 rmoveto
          169 -691 -169 vlineto
          endchar
        </CharString>
        <CharString name="minus">
          9 108 callgsubr
          247 hstem
          143.99 868 vstem
          1012 108 callgsubr
          rmoveto
          247 -868 -247 vlineto
          endchar
        </CharString>
        <CharString name="multiply">
          -38 77 callsubr
          968.99 hstem
          28 callsubr
          956 vstem
          1018 995.98 rmoveto
          -177 175 -301 -307 -301.02 307 -176.99 -175 304 -309 -304 -309.98 165 callgsubr
          -175 113 callgsubr
          307 301 -307 177 175 -304 309.98 rlineto
          endchar
        </CharString>
        <CharString name="n">
          25 0 192 callsubr
          hstem
          -11 callsubr
          -104 callgsubr
          341.01 -89 callgsubr
          178 callsubr
          1101.99 -72 callsubr
        </CharString>
        <CharString name="nine">
          53 -17 -89 callsubr
          233 229.99 534.01 -97 callsubr
          -19 callgsubr
          -78 callgsubr
          387.99998 110 callgsubr
          vstem
          178 callgsubr
          1477 rmoveto
          -297 -196 -234 -282.99 -286 -18 callgsubr
          -205 272.02 99.98 177 callsubr
          43 64 68 hvcurveto
          -228 -24 -144 -112 -279 hhcurveto
          -19.01 209 callgsubr
          23 hlineto
          481.02 268 299.98 491.99 hvcurveto
          107.01 vlineto
          366 -203.02 229 -295 vhcurveto
          205 callsubr
          -778.02 rmoveto
          -135 -66 117 146 136 69 135 122 114.02 82.99 -96.01 -199 hvcurveto
          -3 callgsubr
          vlineto
          -63 -20 callsubr
          -65 -51 callsubr
          -70 callgsubr
          hhcurveto
          endchar
        </CharString>
        <CharString name="nine.frac">
          650.99 115 callsubr
          95.99998 155 226.01001 -45 callgsubr
          1465 0 callsubr
          202 callgsubr
          161 54 52 20.01 -21 callgsubr
          40 hvcurveto
          -130.99 -19 -91 -17 -136 hhcurveto
          -13 -168 85 callsubr
          93 340.99 214 callsubr
          177 callsubr
          -25 callgsubr
          162 callgsubr
          18 callgsubr
          100 callgsubr
          -76 callgsubr
          56 62 133 callsubr
          37 -31 -81 hvcurveto
          -78 vlineto
          -17.98 -16 -30 -18 -46 hhcurveto
          endchar
        </CharString>
        <CharString name="nine.smcp">
          -58 -18 -34 callgsubr
          148 223.99 342.99998 -97 callsubr
          86 callgsubr
          309.01 -89 callgsubr
          203 callgsubr
          1181.98 rmoveto
          -267 -189 -192.99 -230 -258 148 143 callsubr
          239 82 76.99 30 47.99 60 hvcurveto
          -192.98 -28 -133 -33.02 -208 hhcurveto
          -19 -240.99 23 hlineto
          384 287.99 142 callgsubr
          491.99 hvcurveto
          139 callsubr
          vlineto
          338.99 -204 140 209 callgsubr
          vhcurveto
          12 -587 rmoveto
          -110 -56 57 135 callgsubr
          -11 callsubr
          58 82 96 callsubr
          96.99 58 -2 callsubr
          -124.01 hvcurveto
          -112 vlineto
          -30 -24 -47 -28 97 callgsubr
          hhcurveto
          endchar
        </CharString>
        <CharString name="nine.sup">
          -13 115 callsubr
          95.98999 155 226.01001 -45 callgsubr
          800.99 0 callsubr
          203 callsubr
          161 54 51 20.01 31 41 hvcurveto
          -130 -19 -92 -17 -135 hhcurveto
          -13 -167.99 85 callsubr
          92.99 341 214 callsubr
          91.01 -25 callgsubr
          36 68 -34 callsubr
          216 callgsubr
          62 133 callsubr
          37 -31 -81 73 callgsubr
        </CharString>
        <CharString name="nine.tnum">
          64 endchar
        </CharString>
        <CharString name="ntilde">
          25 0 192 callsubr
          153.02 25 callsubr
          89 callgsubr
          -11 callsubr
          -104 callgsubr
          -205.99 -56 callsubr
          374.01 -104 callgsubr
          -261.99 19 callgsubr
          hintmask 00000000
          hintmask 11010110
          451.99 1339.99 rmoveto
          190 callsubr
          133 -1 callgsubr
          122 146 hvcurveto
          129 callsubr
          hintmask 11010110
          -55 callgsubr
          hintmask 11101010
          -89 callsubr
          -238 -72 callsubr
        </CharString>
        <CharString name="numbersign">
          88 0 43 366.98 177 276 177 375.04 -87 callgsubr
          -68 callsubr
          1115.99 vstem
          1170.98 862.99 rmoveto
          177 -222 vlineto
          72 415.99 rlineto
          -187 hlineto
          97 callgsubr
          -415.99 rlineto
          -185.02 hlineto
          5 callgsubr
          415.99 rlineto
          -187 hlineto
          -72 -415.99 rlineto
          -258.99 -177 229 hlineto
          -48 87 callgsubr
          -257 -177 226 hlineto
          -71 -409.99 rlineto
          188 hlineto
          70 409.99 rlineto
          185 hlineto
          -71 -409.99 rlineto
          187 hlineto
          71 409.99 rlineto
          256 177 -225 hlineto
          48 275.99 rlineto
          -235 96 callgsubr
          rmoveto
          -185 hlineto
          47 275.99 rlineto
          185 hlineto
          endchar
        </CharString>
        <CharString name="o">
          31 167 callsubr
          -69 callgsubr
          426.01 -89 callgsubr
          63 550.99 -107 callgsubr
        </CharString>
        <CharString name="o.ss06">
          55 167 callsubr
          56.99 -78 callgsubr
          463.99998 -78 callgsubr
          vstem
          57 550.99 rmoveto
          -21.01 vlineto
          -314.98 203 -235 331 330 77 callsubr
          235 314.98 66 callgsubr
          315.98 -201.99 235 -332 19 callsubr
          -203 -235 -315.98 vhcurveto
          301 -21.01 23 callgsubr
          75 219 callsubr
          159 74 -141 -167 vhcurveto
          -21.01 vlineto
          -170.99 -75 -136 -156 -159 -73.99 136 -3 callsubr
          vhcurveto
          endchar
        </CharString>
        <CharString name="oacute">
          22 callsubr
          622.98 1536 rmoveto
          -196 -27 callgsubr
          244 hlineto
          278 311.01 rlineto
          -885.99 -985.01 -107 callgsubr
        </CharString>
        <CharString name="ocircumflex">
          31 -81 callsubr
          142.01 46 callsubr
          62.99 301.99 426.01 26 callgsubr
          hintmask 11011100
          971 1256 rmoveto
          65 callgsubr
          hintmask 11101100
          16 callsubr
          235 vlineto
          hintmask 11011100
          -12 callsubr
          140.99 156.02 17 callsubr
          hlineto
          hintmask 11101100
          -908 -693 -107 callgsubr
        </CharString>
        <CharString name="odieresis">
          31 -81 callsubr
          133.99998 258 65 callsubr
          -178.99 62 callsubr
          -174.01 26 callgsubr
          hintmask 11101100
          326.98 1495 rmoveto
          -17 callgsubr
          -38 callgsubr
          189 callgsubr
          hvcurveto
          496 -1 rmoveto
          -81 -61 -16 callgsubr
          61 -56 81 -24 callgsubr
          hvcurveto
          hintmask 11110010
          -759.99 -943 -107 callgsubr
        </CharString>
        <CharString name="oe">
          722 -52 callgsubr
          220.98999 -31 callsubr
          212.02 105 callsubr
          81 -104 callgsubr
          423 318.99 348.99998 295.99 vstem
          1769.98 612.99 rmoveto
          298 -165.99 191 -297 vhcurveto
          -146 1 -117 -53 -83 -70 callgsubr
          rrcurveto
          -43 callsubr
          -87 -123 53 -157 hhcurveto
          19 callsubr
          -184 -235 -315.98 hvcurveto
          -21.01 vlineto
          -314.98 184 -235 331 157 124 53 -30 callsubr
          86 vhcurveto
          29 callgsubr
          89 -21 callsubr
          -54 155 hhcurveto
          187 147 60 63 202 callsubr
          hvcurveto
          -79.99 193.99 rlineto
          8 callgsubr
          28 callgsubr
          -90 callsubr
          -32 -143 hhcurveto
          -145.02 -80 98 123 -19.01 hvcurveto
          647 hlineto
          -963.99 86 rmoveto
          -170.99 -54 -136 -156 -159 -53.99 136 -3 callsubr
          66 callgsubr
          167 94 callsubr
          141 157 159 53 -141 -167 vhcurveto
          668 -1 callgsubr
          rmoveto
          -349 hlineto
          122 18 55 -52 callsubr
          109 hhcurveto
          118 138 callgsubr
          -74 -112 hvcurveto
          endchar
        </CharString>
        <CharString name="ograve">
          22 callsubr
          742.99 -39 callsubr
          144 callgsubr
          -27 callgsubr
          -432.99 -674 -107 callgsubr
        </CharString>
        <CharString name="one">
          53 0 43 1373.01999 -87 callgsubr
          508.98 -78 callgsubr
          vstem
          809.98 hmoveto
          1456.99 159 callgsubr
          vlineto
          -612 -217 rlineto
          -243 vlineto
          342 103 rlineto
          -1099.98 vlineto
          endchar
        </CharString>
        <CharString name="one.smcp">
          -58 0 43 hstem
          449.98 -78 callgsubr
          vstem
          750.98 hmoveto
          1160.99 -28 vlineto
          -573.99 -182 rlineto
          -233 vlineto
          301 64 rlineto
          -809.98 vlineto
          endchar
        </CharString>
        <CharString name="one.sup">
          0 43 50 callgsubr
          hmoveto
          786.98 133 callgsubr
          -161 171 callsubr
        </CharString>
        <CharString name="one.tnum">
          24 endchar
        </CharString>
        <CharString name="ordfeminine">
          -217 690.99 143.99 198.01 117 177.98999 148 hstemhm
          134 callsubr
          175 -159 -56 callsubr
          254.01 175 hintmask 11101100
          780.98 178 callsubr
          rmoveto
          -18.99 58 -7 58 65 vvcurveto
          314 vlineto
          183 -117 93 -174 -188 -123 -98 -135 vhcurveto
          173 -14.01 rlineto
          64 52.02 35 86 138 callsubr
          38 -44.99 -82 vhcurveto
          -51 69 callsubr
          vlineto
          hintmask 11110100
          110 callsubr
          -111 28 callgsubr
          -146.99 -138.02 89 -70 callgsubr
          -32 callgsubr
          94 -34 callsubr
          -76 callgsubr
          44 41 hvcurveto
          4 -24 5 -22 8.01 -22.02 rrcurveto
          -292 218 rmoveto
          58 51 52 116 vhcurveto
          101 -136 hlineto
          -33 -36 -2 callgsubr
          -29 -53 hhcurveto
          -80 -37 32.99 55 hvcurveto
          endchar
        </CharString>
        <CharString name="ordmasculine">
          -188 689.99 146 491.98999 148 hstem
          117.99 175 342.98999 175 vstem
          117.99 1120.99 rmoveto
          -77 vlineto
          79 callsubr
          134 -147 214 213 132 147 136 callgsubr
          vhcurveto
          77 vlineto
          136 callgsubr
          -132 148 -215 -212 -134 -148 79 callsubr
          vhcurveto
          175 -77 rmoveto
          77 vlineto
          117 56 -30 callsubr
          115 116 56 -70 callgsubr
          -117 vhcurveto
          -77 vlineto
          -118.99 -56 -89 142 callsubr
          -116.99 -56 89 207 callsubr
          vhcurveto
          endchar
        </CharString>
        <CharString name="oslash">
          30 -81 callsubr
          115 callgsubr
          210.98 -40.95001 -98 callgsubr
          65 callsubr
          426.01 26 callgsubr
          hintmask 10101100
          891.99 1006 rmoveto
          127 callgsubr
          210.99 rlineto
          -164.99 hlineto
          hintmask 11011100
          -70 77 callgsubr
          rlineto
          18 -55 -93 callsubr
          10 -74 callgsubr
          hhcurveto
          19 callsubr
          -185 -235 -315.98 hvcurveto
          -21.01 vlineto
          -198 111 callsubr
          -164.99 136 -97.01 vhcurveto
          -104 -212.97 rlineto
          181 callsubr
          hlineto
          72 70 callsubr
          rlineto
          -80 callsubr
          53 58 -9.01 64 hhcurveto
          97 callsubr
          93 callsubr
          235 314.98 hvcurveto
          -56 callgsubr
          hintmask 10101100
          193.99 -70 164 -131 97.02 vhcurveto
          hintmask 11011100
          -527 -476.02 23 callgsubr
          56 219 callsubr
          27.02 24 -4 -8 21 vhcurveto
          -249 -512 rlineto
          -25 53 -10 68 74 vvcurveto
          426 hmoveto
          -170.99 -56 -136 -156 -24 -11 callgsubr
          3 6 -19 vhcurveto
          245 502.99 rlineto
          22 -52 205 callsubr
          -64 -68 vvcurveto
          endchar
        </CharString>
        <CharString name="otilde">
          31 -81 callsubr
          153.01 25 callsubr
          185.99 65 callsubr
          -167.99 -56 callsubr
          414.01 19 callgsubr
          -164.99 26 callgsubr
          hintmask 11101010
          955.99 1523 rmoveto
          129 callsubr
          hintmask 11010101
          -55 callgsubr
          190 callsubr
          hintmask 11101010
          133 -1 callgsubr
          122 146 hvcurveto
          hintmask 11101001
          -892.99 -972 -107 callgsubr
        </CharString>
        <CharString name="p">
          28 -52 callgsubr
          634.98999 -97 callsubr
          51 callsubr
          377.99998 -78 callgsubr
          vstem
          40 callgsubr
          89 callsubr
          -117 -87 -46 -78 -64 hvcurveto
          -11 176 callsubr
          rlineto
          -280 -1498 302 509.99 hlineto
          -70.99 63 84 -43 112 hhcurveto
          273 146.99 150 callgsubr
          -146.99 220 -275 vhcurveto
          121 -570 rmoveto
          -169 -51 -140 -146 -93 -57 39 65 -31.01 vhcurveto
          431 vlineto
          65 31.01 57 35 -71 callsubr
          hhcurveto
          126 callgsubr
          -68 callsubr
          -130 -175 hvcurveto
          endchar
        </CharString>
        <CharString name="p.ss06">
          49 -52 callgsubr
          634.98999 -97 callsubr
          51 callsubr
          398.01 -78 callgsubr
          vstem
          40 callgsubr
          89 callsubr
          -117 -88 -46 -80 -64 hvcurveto
          -11 106 rlineto
          -279 -1498 302 509 hlineto
          -71 63 84 -42 112 hhcurveto
          273 167 114 callgsubr
          315 154 callsubr
          328.99 -167 221 -275 vhcurveto
          141 -571 rmoveto
          -170 -71 -138 -146 -88 -58 35 58 -35 vhcurveto
          451.01 vlineto
          59 35 58 -21 callgsubr
          86 hhcurveto
          126 callgsubr
          75 -130 -175.99 hvcurveto
          endchar
        </CharString>
        <CharString name="paragraph">
          -122 -70 callsubr
          651.98 222 vstem
          651.98 hmoveto
          222 -71 callgsubr
          -304.98 hlineto
          -318.02 -174 -199.99 -268 -270.01 174 -198 318.02 hvcurveto
          82.99 hlineto
          endchar
        </CharString>
        <CharString name="parenleft">
          -405 194 callsubr
          123.99 251 vstem
          123.99 591.99 rmoveto
          -25 vlineto
          -559 268 -360.98 231 -100 vhcurveto
          -33 callgsubr
          158 rlineto
          -150.02 6 callgsubr
          -155 263 483.99 vvcurveto
          29 vlineto
          485 155 262 150.02 112 vhcurveto
          5 callsubr
          -32 callgsubr
          rlineto
          -231 -100.99 -268 -360 -560.01 vvcurveto
          endchar
        </CharString>
        <CharString name="parenright">
          -403 194 callsubr
          345.98 268 vstem
          613.99 566.99 rmoveto
          25 vlineto
          536.99 -276.01 383.02 -239 -11 callsubr
          vhcurveto
          -58.98 183 callgsubr
          rlineto
          146 -111 -32 callgsubr
          -264.01 -485 vvcurveto
          -29 vlineto
          -483.99 -157 -264.98 -148.99 -111 vhcurveto
          58.98 -158 rlineto
          239 100 276.01 382.97 537 vvcurveto
          endchar
        </CharString>
        <CharString name="percent">
          390 -20 -56 callsubr
          330.98999 181 callgsubr
          -31 callgsubr
          -56 callsubr
          331.01 181 callgsubr
          hstemhm
          93.98 199 239 198 59.01001 199 239 198.98 hintmask 11111101
          93.98 1175.98 rmoveto
          125 callgsubr
          vlineto
          -163 111 -136 209 209 107 136 163 vhcurveto
          76.99 vlineto
          165 -107 136 -210.99 -207.02 -111 -136 -165 vhcurveto
          379 -1066.99 rmoveto
          711 1138 -146 77 -711 -1138 rlineto
          -34 913 rmoveto
          76.99 vlineto
          18 callgsubr
          39 -50 callsubr
          139 callsubr
          81 39 -54 callsubr
          140 callsubr
          vhcurveto
          125 callgsubr
          vlineto
          -66 -90 callgsubr
          -60 -12 callgsubr
          -82 -39 60 66 vhcurveto
          hintmask 11111111
          496 -742.01 rmoveto
          -77 vlineto
          -163.99 111 -136 209 210 106.99 136 163.99 vhcurveto
          77 vlineto
          164 -106.99 136 -212 79 callsubr
          -111 -136 -164 vhcurveto
          199 -77 rmoveto
          77 vlineto
          -68 callgsubr
          39 -50 callsubr
          202 callsubr
          81 75 callsubr
          -54 callsubr
          -74 callgsubr
          vhcurveto
          -77 vlineto
          -30 callgsubr
          -23 -60 -95 -72.01 -2 callsubr
          60 -51 callgsubr
          vhcurveto
          endchar
        </CharString>
        <CharString name="period">
          -523 131 callsubr
          hstem
          123.99 339 vstem
          292.98 308.98 rmoveto
          -20 callgsubr
          -74 callgsubr
          122 callgsubr
          -68 callgsubr
          175 callsubr
          -37 callsubr
          103 -68 callgsubr
          68.99 91 -71 callsubr
          -74 callgsubr
          69 -103 hvcurveto
          endchar
        </CharString>
        <CharString name="periodcentered">
          -497 532.99 320 hstem
          204 callsubr
          339 vstem
          308.98 852.99 rmoveto
          -20 callgsubr
          -74 callgsubr
          -69 -91.01 -91 -68 callgsubr
          -69 -37 callsubr
          135 callgsubr
          -51 callgsubr
          69 91 91.01 -30 callgsubr
          69 -103.02 hvcurveto
          endchar
        </CharString>
        <CharString name="plus">
          -13 547.98 272.02 345.01999 -87 callgsubr
          411.99 284.99 vstem
          1052 820 rmoveto
          -355 385.99 -285 -385.99 -358.01 -272.02 358.01 -402 285 402 355 hlineto
          endchar
        </CharString>
        <CharString name="plusminus">
          -24 0.98 247 454.01001 -89 callsubr
          hstem
          416.99 263.98 vstem
          680.98 76 callgsubr
          rmoveto
          334.01 -263.99 -334.01 -329.01 209 callgsubr
          329.01 -358.01 263.99 358.01 323.01 -89 callsubr
          vlineto
          -894 -954 rmoveto
          867.99 247 -867.99 hlineto
          endchar
        </CharString>
        <CharString name="q">
          31 167 callsubr
          -69 callgsubr
          377.01 303 vstem
          780.98 1082 rmoveto
          212 callsubr
          -113 rlineto
          84 -64 -89.01 138 callgsubr
          -121 hhcurveto
          -274 -150 57 callsubr
          150 7 callsubr
          272 110 112 callgsubr
          42 70 63 vhcurveto
          -508 303 165 callsubr
          -51 138 170 154 callsubr
          175 94 callsubr
          132 145.02 -43 callsubr
          57 -35 -63 32 vhcurveto
          -437 vlineto
          -63 -32 -57 -38 78 callgsubr
          hhcurveto
          endchar
        </CharString>
        <CharString name="q.ss06">
          53 167 callsubr
          131 callgsubr
          398.01 -89 callgsubr
          804.99 1082 rmoveto
          -21 142 callsubr
          rlineto
          112 callgsubr
          -65 -89 76 callsubr
          -121 hhcurveto
          -274 -170 118 callsubr
          171 -235 211 callgsubr
          111 83 42 70 64 vhcurveto
          -508 302 165 callsubr
          -71 137 118 callgsubr
          132 145 85 58 -32 -57 36 vhcurveto
          -455 vlineto
          -58 -36 -58 -34 -87 hhcurveto
          endchar
        </CharString>
        <CharString name="question">
          -99 -12 81 callsubr
          925 245 hstemhm
          41.98 303 -30 336.02 -305.02 264.99 40.02 303 hintmask 00000000
          hintmask 11001100
          345.99 453 rmoveto
          264.99 hlineto
          2 103 21.01 66 75.99 68 rrcurveto
          hintmask 11100100
          131 122 113 -1 callgsubr
          175 vvcurveto
          254.02 -169 139 -283.01 -257 -198.99 -127 -286 141 callsubr
          vhcurveto
          303 hlineto
          207 callsubr
          2 75 49 80 hhcurveto
          98 137 callsubr
          -54 -108 -92 -63.02 -66 -93 71 callgsubr
          hvcurveto
          hintmask 11001100
          -112.99 -99 -35 69 callsubr
          -1 -177.99 rrcurveto
          hintmask 11010000
          134 callsubr
          -147 rmoveto
          -20 callgsubr
          -66 -69 -61 callsubr
          -70 callgsubr
          66 -69 -37 callsubr
          102.02 66 69 -30 callsubr
          -52 callsubr
          -66 69 184 callgsubr
          hvcurveto
          endchar
        </CharString>
        <CharString name="questiondown">
          -99 -385 245 924.99 81 callsubr
          hstemhm
          86 callgsubr
          7.01 335.99 -303.98 263.98 5.01 303 hintmask 00000000
          hintmask 11010000
          547.98 785 rmoveto
          39 callsubr
          100 callgsubr
          69 -30 callsubr
          -52 callsubr
          113 callsubr
          69 69 callsubr
          -20 callgsubr
          -66 -69 -61 callsubr
          -70 callgsubr
          66 -69 -37 callsubr
          hvcurveto
          hintmask 11101000
          128 -147 rmoveto
          -263.98 hlineto
          -2 -103 -13 -58 -76 -68.01 rrcurveto
          hintmask 11100100
          143 callsubr
          -122 -120.02 -104 -175 vvcurveto
          -254.99 169 -138 284 257 199 127 286 4 vhcurveto
          -303 hlineto
          -118 79 callgsubr
          -50 callgsubr
          -50 -88 hhcurveto
          -87.99 5 callsubr
          47 -37 callsubr
          107 18 callgsubr
          62 -71 callsubr
          -19 callgsubr
          hvcurveto
          hintmask 11101000
          113.01 100 30.99 97 178 vvcurveto
          endchar
        </CharString>
        <CharString name="quotedbl">
          -470 979.98 556.99 hstem
          94 callsubr
          208.99 136 callsubr
          208.99 vstem
          262.98 1398.99 rmoveto
          138 -209 -557 169 vlineto
          373 419 rmoveto
          138 -209 -557 168 vlineto
          endchar
        </CharString>
        <CharString name="quotedblbase">
          -286 -327 592.99 hstem
          149.99 -102 callsubr
          105.01 -102 callsubr
          vstem
          392.99 99 callsubr
          rmoveto
          201 -243 -201 vlineto
          205 callgsubr
          -32 -94 -47 139 callgsubr
          vhcurveto
          147 -13 callgsubr
          rlineto
          99 -52 callsubr
          76 163 138.97 vvcurveto
          348 hmoveto
          1 201 rlineto
          -244 -201 hlineto
          205 callgsubr
          -40 -94 -47 139 callgsubr
          vhcurveto
          147 -13 callgsubr
          rlineto
          99 -52 callsubr
          83.99 163 138.97 vvcurveto
          endchar
        </CharString>
        <CharString name="quotedblleft">
          -283 1045.99 203 callgsubr
          hstem
          6 callgsubr
          234 111 234 vstem
          6 callgsubr
          1200.99 rmoveto
          107 callsubr
          234 -12 callsubr
          vlineto
          126 40 88 47 70 callgsubr
          vhcurveto
          -138 80 rlineto
          -99 -86 28 callgsubr
          -154 -132 vvcurveto
          345 hmoveto
          107 callsubr
          234 -12 callsubr
          vlineto
          126 41 88 46.99 70 callgsubr
          vhcurveto
          -139 80 rlineto
          -98 -86 -85 -154 -132 vvcurveto
          endchar
        </CharString>
        <CharString name="quotedblright">
          -276 1005.99 530 hstem
          80 callgsubr
          233 118 233 vstem
          395.98 1378 rmoveto
          158 -233 -158 vlineto
          183 callsubr
          -40.98 -88 -47 21 callgsubr
          vhcurveto
          139 -80 rlineto
          98 86 83.99 -18 callgsubr
          132.02 vvcurveto
          351 hmoveto
          158 -233 -158 vlineto
          183 callsubr
          -41 -88 -47 21 callgsubr
          vhcurveto
          139 -80 rlineto
          161 callgsubr
          86 83.99 -18 callgsubr
          132.02 vvcurveto
          endchar
        </CharString>
        <CharString name="quoteleft">
          -637 1045.99 203 callgsubr
          hstem
          104.98 234 vstem
          104.98 1200.99 rmoveto
          107 callsubr
          234 -12 callsubr
          vlineto
          126 41 88 47 70 callgsubr
          vhcurveto
          -139 80 rlineto
          -98 -86 203 callsubr
          -154 -132 vvcurveto
          endchar
        </CharString>
        <CharString name="quoteright">
          -647 1005.99 530 hstem
          142 callgsubr
          234 vstem
          383 1378 rmoveto
          158 -234 -158 vlineto
          183 callsubr
          -41 -88 -47 21 callgsubr
          vhcurveto
          139 -80 rlineto
          98 86 85.02 -18 callgsubr
          132.02 vvcurveto
          endchar
        </CharString>
        <CharString name="quotesinglbase">
          -604 -306.99 543.98 hstem
          149.99 -102 callsubr
          vstem
          392.99 99 callsubr
          rmoveto
          172 -243 -172 vlineto
          -126.97 -32 -88 -47 -78 vhcurveto
          139 -79 rlineto
          161 callgsubr
          85 85 155 131.97 vvcurveto
          endchar
        </CharString>
        <CharString name="quotesingle">
          -797 975.99 560 hstem
          57.99 219.99 vstem
          278 1384 rmoveto
          152 -220 -560.01 112 callsubr
          vlineto
          endchar
        </CharString>
        <CharString name="r">
          -370 0 43 762.99 295.99 hstem
          51 callsubr
          vstem
          640.98 89 callsubr
          -105 -82 -45 callsubr
          109 callgsubr
          -52.99 hvcurveto
          -9.01 131 rlineto
          -284 -1082 302 698.98 hlineto
          70 32 68 37 111 hhcurveto
          30.99 47 -4 141 callsubr
          29 hvcurveto
          4.02 292 rlineto
          7 -22.02 -38 5 -31 hhcurveto
          endchar
        </CharString>
</ttFont>
